<?xml version="1.0" encoding="utf-8"?>
<svg xmlns="http://www.w3.org/2000/svg" xmlns:xlink="http://www.w3.org/1999/xlink" width="600" height="400" viewBox="0 0 2400 1600">
<defs>
  <clipPath id="clip3600">
    <rect x="0" y="0" width="2400" height="1600"/>
  </clipPath>
</defs>
<path clip-path="url(#clip3600)" d="
M0 1600 L2400 1600 L2400 0 L0 0  Z
  " fill="#ffffff" fill-rule="evenodd" fill-opacity="1"/>
<defs>
  <clipPath id="clip3601">
    <rect x="480" y="0" width="1681" height="1600"/>
  </clipPath>
</defs>
<path clip-path="url(#clip3600)" d="
M113.754 1487.47 L2352.76 1487.47 L2352.76 121.675 L113.754 121.675  Z
  " fill="#ffffff" fill-rule="evenodd" fill-opacity="1"/>
<defs>
  <clipPath id="clip3602">
    <rect x="113" y="121" width="2240" height="1367"/>
  </clipPath>
</defs>
<polyline clip-path="url(#clip3602)" style="stroke:#000000; stroke-width:2; stroke-opacity:0.1; fill:none" points="
  155.786,1487.47 155.786,121.675 
  "/>
<polyline clip-path="url(#clip3602)" style="stroke:#000000; stroke-width:2; stroke-opacity:0.1; fill:none" points="
  689.187,1487.47 689.187,121.675 
  "/>
<polyline clip-path="url(#clip3602)" style="stroke:#000000; stroke-width:2; stroke-opacity:0.1; fill:none" points="
  1222.59,1487.47 1222.59,121.675 
  "/>
<polyline clip-path="url(#clip3602)" style="stroke:#000000; stroke-width:2; stroke-opacity:0.1; fill:none" points="
  1755.99,1487.47 1755.99,121.675 
  "/>
<polyline clip-path="url(#clip3602)" style="stroke:#000000; stroke-width:2; stroke-opacity:0.1; fill:none" points="
  2289.39,1487.47 2289.39,121.675 
  "/>
<polyline clip-path="url(#clip3602)" style="stroke:#000000; stroke-width:2; stroke-opacity:0.1; fill:none" points="
  113.754,1452.21 2352.76,1452.21 
  "/>
<polyline clip-path="url(#clip3602)" style="stroke:#000000; stroke-width:2; stroke-opacity:0.1; fill:none" points="
  113.754,1199.51 2352.76,1199.51 
  "/>
<polyline clip-path="url(#clip3602)" style="stroke:#000000; stroke-width:2; stroke-opacity:0.1; fill:none" points="
  113.754,946.805 2352.76,946.805 
  "/>
<polyline clip-path="url(#clip3602)" style="stroke:#000000; stroke-width:2; stroke-opacity:0.1; fill:none" points="
  113.754,694.103 2352.76,694.103 
  "/>
<polyline clip-path="url(#clip3602)" style="stroke:#000000; stroke-width:2; stroke-opacity:0.1; fill:none" points="
  113.754,441.401 2352.76,441.401 
  "/>
<polyline clip-path="url(#clip3602)" style="stroke:#000000; stroke-width:2; stroke-opacity:0.1; fill:none" points="
  113.754,188.699 2352.76,188.699 
  "/>
<polyline clip-path="url(#clip3600)" style="stroke:#000000; stroke-width:4; stroke-opacity:1; fill:none" points="
  113.754,1487.47 2352.76,1487.47 
  "/>
<polyline clip-path="url(#clip3600)" style="stroke:#000000; stroke-width:4; stroke-opacity:1; fill:none" points="
  113.754,1487.47 113.754,121.675 
  "/>
<polyline clip-path="url(#clip3600)" style="stroke:#000000; stroke-width:4; stroke-opacity:1; fill:none" points="
  155.786,1487.47 155.786,1471.09 
  "/>
<polyline clip-path="url(#clip3600)" style="stroke:#000000; stroke-width:4; stroke-opacity:1; fill:none" points="
  689.187,1487.47 689.187,1471.09 
  "/>
<polyline clip-path="url(#clip3600)" style="stroke:#000000; stroke-width:4; stroke-opacity:1; fill:none" points="
  1222.59,1487.47 1222.59,1471.09 
  "/>
<polyline clip-path="url(#clip3600)" style="stroke:#000000; stroke-width:4; stroke-opacity:1; fill:none" points="
  1755.99,1487.47 1755.99,1471.09 
  "/>
<polyline clip-path="url(#clip3600)" style="stroke:#000000; stroke-width:4; stroke-opacity:1; fill:none" points="
  2289.39,1487.47 2289.39,1471.09 
  "/>
<polyline clip-path="url(#clip3600)" style="stroke:#000000; stroke-width:4; stroke-opacity:1; fill:none" points="
  113.754,1452.21 140.622,1452.21 
  "/>
<polyline clip-path="url(#clip3600)" style="stroke:#000000; stroke-width:4; stroke-opacity:1; fill:none" points="
  113.754,1199.51 140.622,1199.51 
  "/>
<polyline clip-path="url(#clip3600)" style="stroke:#000000; stroke-width:4; stroke-opacity:1; fill:none" points="
  113.754,946.805 140.622,946.805 
  "/>
<polyline clip-path="url(#clip3600)" style="stroke:#000000; stroke-width:4; stroke-opacity:1; fill:none" points="
  113.754,694.103 140.622,694.103 
  "/>
<polyline clip-path="url(#clip3600)" style="stroke:#000000; stroke-width:4; stroke-opacity:1; fill:none" points="
  113.754,441.401 140.622,441.401 
  "/>
<polyline clip-path="url(#clip3600)" style="stroke:#000000; stroke-width:4; stroke-opacity:1; fill:none" points="
  113.754,188.699 140.622,188.699 
  "/>
<g clip-path="url(#clip3600)">
<text style="fill:#000000; fill-opacity:1; font-family:Arial,Helvetica Neue,Helvetica,sans-serif; font-size:48px; text-anchor:middle;" transform="rotate(0, 155.786, 1541.47)" x="155.786" y="1541.47">0</text>
</g>
<g clip-path="url(#clip3600)">
<text style="fill:#000000; fill-opacity:1; font-family:Arial,Helvetica Neue,Helvetica,sans-serif; font-size:48px; text-anchor:middle;" transform="rotate(0, 689.187, 1541.47)" x="689.187" y="1541.47">25</text>
</g>
<g clip-path="url(#clip3600)">
<text style="fill:#000000; fill-opacity:1; font-family:Arial,Helvetica Neue,Helvetica,sans-serif; font-size:48px; text-anchor:middle;" transform="rotate(0, 1222.59, 1541.47)" x="1222.59" y="1541.47">50</text>
</g>
<g clip-path="url(#clip3600)">
<text style="fill:#000000; fill-opacity:1; font-family:Arial,Helvetica Neue,Helvetica,sans-serif; font-size:48px; text-anchor:middle;" transform="rotate(0, 1755.99, 1541.47)" x="1755.99" y="1541.47">75</text>
</g>
<g clip-path="url(#clip3600)">
<text style="fill:#000000; fill-opacity:1; font-family:Arial,Helvetica Neue,Helvetica,sans-serif; font-size:48px; text-anchor:middle;" transform="rotate(0, 2289.39, 1541.47)" x="2289.39" y="1541.47">100</text>
</g>
<g clip-path="url(#clip3600)">
<text style="fill:#000000; fill-opacity:1; font-family:Arial,Helvetica Neue,Helvetica,sans-serif; font-size:48px; text-anchor:end;" transform="rotate(0, 89.7545, 1469.71)" x="89.7545" y="1469.71">0</text>
</g>
<g clip-path="url(#clip3600)">
<text style="fill:#000000; fill-opacity:1; font-family:Arial,Helvetica Neue,Helvetica,sans-serif; font-size:48px; text-anchor:end;" transform="rotate(0, 89.7545, 1217.01)" x="89.7545" y="1217.01">1</text>
</g>
<g clip-path="url(#clip3600)">
<text style="fill:#000000; fill-opacity:1; font-family:Arial,Helvetica Neue,Helvetica,sans-serif; font-size:48px; text-anchor:end;" transform="rotate(0, 89.7545, 964.305)" x="89.7545" y="964.305">2</text>
</g>
<g clip-path="url(#clip3600)">
<text style="fill:#000000; fill-opacity:1; font-family:Arial,Helvetica Neue,Helvetica,sans-serif; font-size:48px; text-anchor:end;" transform="rotate(0, 89.7545, 711.603)" x="89.7545" y="711.603">3</text>
</g>
<g clip-path="url(#clip3600)">
<text style="fill:#000000; fill-opacity:1; font-family:Arial,Helvetica Neue,Helvetica,sans-serif; font-size:48px; text-anchor:end;" transform="rotate(0, 89.7545, 458.901)" x="89.7545" y="458.901">4</text>
</g>
<g clip-path="url(#clip3600)">
<text style="fill:#000000; fill-opacity:1; font-family:Arial,Helvetica Neue,Helvetica,sans-serif; font-size:48px; text-anchor:end;" transform="rotate(0, 89.7545, 206.199)" x="89.7545" y="206.199">5</text>
</g>
<g clip-path="url(#clip3600)">
<text style="fill:#000000; fill-opacity:1; font-family:Arial,Helvetica Neue,Helvetica,sans-serif; font-size:84px; text-anchor:middle;" transform="rotate(0, 1233.26, 73.2)" x="1233.26" y="73.2">Neuroverkon kustannusfunktio</text>
</g>
<polyline clip-path="url(#clip3602)" style="stroke:#000000; stroke-width:4; stroke-opacity:1; fill:none" points="
  177.122,160.33 198.458,526.404 219.794,728.135 241.13,844.591 262.466,916.507 283.803,964.886 305.139,1000.57 326.475,1029.17 347.811,1053.6 369.147,1075.39 
  390.483,1095.35 411.819,1113.93 433.155,1131.36 454.491,1147.82 475.827,1163.38 497.163,1178.12 518.499,1192.1 539.835,1205.36 561.171,1217.94 582.507,1229.88 
  603.843,1241.21 625.179,1251.96 646.515,1262.16 667.851,1271.85 689.187,1281.04 710.523,1289.76 731.859,1298.04 753.195,1305.89 774.531,1313.35 795.867,1320.42 
  817.203,1327.14 838.539,1333.51 859.875,1339.56 881.211,1345.3 902.547,1350.74 923.883,1355.91 945.219,1360.82 966.555,1365.48 987.891,1369.9 1009.23,1374.09 
  1030.56,1378.07 1051.9,1381.85 1073.24,1385.43 1094.57,1388.84 1115.91,1392.06 1137.24,1395.13 1158.58,1398.04 1179.92,1400.8 1201.25,1403.42 1222.59,1405.9 
  1243.92,1408.26 1265.26,1410.5 1286.6,1412.63 1307.93,1414.64 1329.27,1416.56 1350.6,1418.37 1371.94,1420.1 1393.28,1421.73 1414.61,1423.29 1435.95,1424.76 
  1457.28,1426.16 1478.62,1427.49 1499.96,1428.75 1521.29,1429.94 1542.63,1431.08 1563.96,1432.15 1585.3,1433.17 1606.64,1434.14 1627.97,1435.06 1649.31,1435.94 
  1670.64,1436.77 1691.98,1437.55 1713.32,1438.3 1734.65,1439.01 1755.99,1439.68 1777.32,1440.32 1798.66,1440.93 1820,1441.5 1841.33,1442.05 1862.67,1442.56 
  1884,1443.06 1905.34,1443.52 1926.68,1443.96 1948.01,1444.38 1969.35,1444.78 1990.68,1445.16 2012.02,1445.52 2033.36,1445.86 2054.69,1446.18 2076.03,1446.49 
  2097.36,1446.78 2118.7,1447.06 2140.04,1447.32 2161.37,1447.57 2182.71,1447.81 2204.04,1448.03 2225.38,1448.24 2246.72,1448.45 2268.05,1448.64 2289.39,1448.82 
  
  "/>
<path clip-path="url(#clip3600)" d="
M2016.69 326.155 L2280.76 326.155 L2280.76 205.195 L2016.69 205.195  Z
  " fill="#ffffff" fill-rule="evenodd" fill-opacity="1"/>
<polyline clip-path="url(#clip3600)" style="stroke:#000000; stroke-width:4; stroke-opacity:1; fill:none" points="
  2016.69,326.155 2280.76,326.155 2280.76,205.195 2016.69,205.195 2016.69,326.155 
  "/>
<polyline clip-path="url(#clip3600)" style="stroke:#000000; stroke-width:4; stroke-opacity:1; fill:none" points="
  2040.69,265.675 2184.69,265.675 
  "/>
<g clip-path="url(#clip3600)">
<text style="fill:#000000; fill-opacity:1; font-family:Arial,Helvetica Neue,Helvetica,sans-serif; font-size:48px; text-anchor:start;" transform="rotate(0, 2208.69, 283.175)" x="2208.69" y="283.175">J</text>
</g>
</svg>
