<?xml version="1.0" encoding="utf-8"?>
<svg xmlns="http://www.w3.org/2000/svg" xmlns:xlink="http://www.w3.org/1999/xlink" width="600" height="400" viewBox="0 0 2400 1600">
<defs>
  <clipPath id="clip5200">
    <rect x="0" y="0" width="2400" height="1600"/>
  </clipPath>
</defs>
<path clip-path="url(#clip5200)" d="
M0 1600 L2400 1600 L2400 0 L0 0  Z
  " fill="#ffffff" fill-rule="evenodd" fill-opacity="1"/>
<defs>
  <clipPath id="clip5201">
    <rect x="480" y="0" width="1681" height="1600"/>
  </clipPath>
</defs>
<path clip-path="url(#clip5200)" d="
M194.041 1487.47 L2352.76 1487.47 L2352.76 121.675 L194.041 121.675  Z
  " fill="#ffffff" fill-rule="evenodd" fill-opacity="1"/>
<defs>
  <clipPath id="clip5202">
    <rect x="194" y="121" width="2160" height="1367"/>
  </clipPath>
</defs>
<polyline clip-path="url(#clip5202)" style="stroke:#000000; stroke-width:2; stroke-opacity:0.1; fill:none" points="
  594.558,1487.47 594.558,121.675 
  "/>
<polyline clip-path="url(#clip5202)" style="stroke:#000000; stroke-width:2; stroke-opacity:0.1; fill:none" points="
  1018.83,1487.47 1018.83,121.675 
  "/>
<polyline clip-path="url(#clip5202)" style="stroke:#000000; stroke-width:2; stroke-opacity:0.1; fill:none" points="
  1443.11,1487.47 1443.11,121.675 
  "/>
<polyline clip-path="url(#clip5202)" style="stroke:#000000; stroke-width:2; stroke-opacity:0.1; fill:none" points="
  1867.38,1487.47 1867.38,121.675 
  "/>
<polyline clip-path="url(#clip5202)" style="stroke:#000000; stroke-width:2; stroke-opacity:0.1; fill:none" points="
  2291.66,1487.47 2291.66,121.675 
  "/>
<polyline clip-path="url(#clip5202)" style="stroke:#000000; stroke-width:2; stroke-opacity:0.1; fill:none" points="
  194.041,1453.21 2352.76,1453.21 
  "/>
<polyline clip-path="url(#clip5202)" style="stroke:#000000; stroke-width:2; stroke-opacity:0.1; fill:none" points="
  194.041,1066.18 2352.76,1066.18 
  "/>
<polyline clip-path="url(#clip5202)" style="stroke:#000000; stroke-width:2; stroke-opacity:0.1; fill:none" points="
  194.041,679.136 2352.76,679.136 
  "/>
<polyline clip-path="url(#clip5202)" style="stroke:#000000; stroke-width:2; stroke-opacity:0.1; fill:none" points="
  194.041,292.097 2352.76,292.097 
  "/>
<polyline clip-path="url(#clip5200)" style="stroke:#000000; stroke-width:4; stroke-opacity:1; fill:none" points="
  194.041,1487.47 2352.76,1487.47 
  "/>
<polyline clip-path="url(#clip5200)" style="stroke:#000000; stroke-width:4; stroke-opacity:1; fill:none" points="
  194.041,1487.47 194.041,121.675 
  "/>
<polyline clip-path="url(#clip5200)" style="stroke:#000000; stroke-width:4; stroke-opacity:1; fill:none" points="
  594.558,1487.47 594.558,1471.09 
  "/>
<polyline clip-path="url(#clip5200)" style="stroke:#000000; stroke-width:4; stroke-opacity:1; fill:none" points="
  1018.83,1487.47 1018.83,1471.09 
  "/>
<polyline clip-path="url(#clip5200)" style="stroke:#000000; stroke-width:4; stroke-opacity:1; fill:none" points="
  1443.11,1487.47 1443.11,1471.09 
  "/>
<polyline clip-path="url(#clip5200)" style="stroke:#000000; stroke-width:4; stroke-opacity:1; fill:none" points="
  1867.38,1487.47 1867.38,1471.09 
  "/>
<polyline clip-path="url(#clip5200)" style="stroke:#000000; stroke-width:4; stroke-opacity:1; fill:none" points="
  2291.66,1487.47 2291.66,1471.09 
  "/>
<polyline clip-path="url(#clip5200)" style="stroke:#000000; stroke-width:4; stroke-opacity:1; fill:none" points="
  194.041,1453.21 219.946,1453.21 
  "/>
<polyline clip-path="url(#clip5200)" style="stroke:#000000; stroke-width:4; stroke-opacity:1; fill:none" points="
  194.041,1066.18 219.946,1066.18 
  "/>
<polyline clip-path="url(#clip5200)" style="stroke:#000000; stroke-width:4; stroke-opacity:1; fill:none" points="
  194.041,679.136 219.946,679.136 
  "/>
<polyline clip-path="url(#clip5200)" style="stroke:#000000; stroke-width:4; stroke-opacity:1; fill:none" points="
  194.041,292.097 219.946,292.097 
  "/>
<g clip-path="url(#clip5200)">
<text style="fill:#000000; fill-opacity:1; font-family:Arial,Helvetica Neue,Helvetica,sans-serif; font-size:48px; text-anchor:middle;" transform="rotate(0, 594.558, 1541.47)" x="594.558" y="1541.47">5</text>
</g>
<g clip-path="url(#clip5200)">
<text style="fill:#000000; fill-opacity:1; font-family:Arial,Helvetica Neue,Helvetica,sans-serif; font-size:48px; text-anchor:middle;" transform="rotate(0, 1018.83, 1541.47)" x="1018.83" y="1541.47">10</text>
</g>
<g clip-path="url(#clip5200)">
<text style="fill:#000000; fill-opacity:1; font-family:Arial,Helvetica Neue,Helvetica,sans-serif; font-size:48px; text-anchor:middle;" transform="rotate(0, 1443.11, 1541.47)" x="1443.11" y="1541.47">15</text>
</g>
<g clip-path="url(#clip5200)">
<text style="fill:#000000; fill-opacity:1; font-family:Arial,Helvetica Neue,Helvetica,sans-serif; font-size:48px; text-anchor:middle;" transform="rotate(0, 1867.38, 1541.47)" x="1867.38" y="1541.47">20</text>
</g>
<g clip-path="url(#clip5200)">
<text style="fill:#000000; fill-opacity:1; font-family:Arial,Helvetica Neue,Helvetica,sans-serif; font-size:48px; text-anchor:middle;" transform="rotate(0, 2291.66, 1541.47)" x="2291.66" y="1541.47">25</text>
</g>
<g clip-path="url(#clip5200)">
<text style="fill:#000000; fill-opacity:1; font-family:Arial,Helvetica Neue,Helvetica,sans-serif; font-size:48px; text-anchor:end;" transform="rotate(0, 170.041, 1470.71)" x="170.041" y="1470.71">0</text>
</g>
<g clip-path="url(#clip5200)">
<text style="fill:#000000; fill-opacity:1; font-family:Arial,Helvetica Neue,Helvetica,sans-serif; font-size:48px; text-anchor:end;" transform="rotate(0, 170.041, 1083.68)" x="170.041" y="1083.68">500</text>
</g>
<g clip-path="url(#clip5200)">
<text style="fill:#000000; fill-opacity:1; font-family:Arial,Helvetica Neue,Helvetica,sans-serif; font-size:48px; text-anchor:end;" transform="rotate(0, 170.041, 696.636)" x="170.041" y="696.636">1000</text>
</g>
<g clip-path="url(#clip5200)">
<text style="fill:#000000; fill-opacity:1; font-family:Arial,Helvetica Neue,Helvetica,sans-serif; font-size:48px; text-anchor:end;" transform="rotate(0, 170.041, 309.597)" x="170.041" y="309.597">1500</text>
</g>
<g clip-path="url(#clip5200)">
<text style="fill:#000000; fill-opacity:1; font-family:Arial,Helvetica Neue,Helvetica,sans-serif; font-size:84px; text-anchor:middle;" transform="rotate(0, 1273.4, 73.2)" x="1273.4" y="73.2">Covid-kuolleisuus Kiinassa 23.1.2020 - 9.2.2020</text>
</g>
<circle clip-path="url(#clip5202)" cx="255.137" cy="1433.86" r="14" fill="#009af9" fill-rule="evenodd" fill-opacity="1" stroke="#000000" stroke-opacity="1" stroke-width="3.2"/>
<circle clip-path="url(#clip5202)" cx="339.992" cy="1421.48" r="14" fill="#009af9" fill-rule="evenodd" fill-opacity="1" stroke="#000000" stroke-opacity="1" stroke-width="3.2"/>
<circle clip-path="url(#clip5202)" cx="424.847" cy="1409.87" r="14" fill="#009af9" fill-rule="evenodd" fill-opacity="1" stroke="#000000" stroke-opacity="1" stroke-width="3.2"/>
<circle clip-path="url(#clip5202)" cx="509.703" cy="1391.29" r="14" fill="#009af9" fill-rule="evenodd" fill-opacity="1" stroke="#000000" stroke-opacity="1" stroke-width="3.2"/>
<circle clip-path="url(#clip5202)" cx="594.558" cy="1371.16" r="14" fill="#009af9" fill-rule="evenodd" fill-opacity="1" stroke="#000000" stroke-opacity="1" stroke-width="3.2"/>
<circle clip-path="url(#clip5202)" cx="679.413" cy="1351.04" r="14" fill="#009af9" fill-rule="evenodd" fill-opacity="1" stroke="#000000" stroke-opacity="1" stroke-width="3.2"/>
<circle clip-path="url(#clip5202)" cx="764.268" cy="1321.62" r="14" fill="#009af9" fill-rule="evenodd" fill-opacity="1" stroke="#000000" stroke-opacity="1" stroke-width="3.2"/>
<circle clip-path="url(#clip5202)" cx="849.123" cy="1288.34" r="14" fill="#009af9" fill-rule="evenodd" fill-opacity="1" stroke="#000000" stroke-opacity="1" stroke-width="3.2"/>
<circle clip-path="url(#clip5202)" cx="933.978" cy="1252.73" r="14" fill="#009af9" fill-rule="evenodd" fill-opacity="1" stroke="#000000" stroke-opacity="1" stroke-width="3.2"/>
<circle clip-path="url(#clip5202)" cx="1018.83" cy="1217.89" r="14" fill="#009af9" fill-rule="evenodd" fill-opacity="1" stroke="#000000" stroke-opacity="1" stroke-width="3.2"/>
<circle clip-path="url(#clip5202)" cx="1103.69" cy="1173" r="14" fill="#009af9" fill-rule="evenodd" fill-opacity="1" stroke="#000000" stroke-opacity="1" stroke-width="3.2"/>
<circle clip-path="url(#clip5202)" cx="1188.54" cy="1123.46" r="14" fill="#009af9" fill-rule="evenodd" fill-opacity="1" stroke="#000000" stroke-opacity="1" stroke-width="3.2"/>
<circle clip-path="url(#clip5202)" cx="1273.4" cy="1072.37" r="14" fill="#009af9" fill-rule="evenodd" fill-opacity="1" stroke="#000000" stroke-opacity="1" stroke-width="3.2"/>
<circle clip-path="url(#clip5202)" cx="1358.25" cy="1015.86" r="14" fill="#009af9" fill-rule="evenodd" fill-opacity="1" stroke="#000000" stroke-opacity="1" stroke-width="3.2"/>
<circle clip-path="url(#clip5202)" cx="1443.11" cy="959.353" r="14" fill="#009af9" fill-rule="evenodd" fill-opacity="1" stroke="#000000" stroke-opacity="1" stroke-width="3.2"/>
<circle clip-path="url(#clip5202)" cx="1527.96" cy="892.782" r="14" fill="#009af9" fill-rule="evenodd" fill-opacity="1" stroke="#000000" stroke-opacity="1" stroke-width="3.2"/>
<circle clip-path="url(#clip5202)" cx="1612.82" cy="823.889" r="14" fill="#009af9" fill-rule="evenodd" fill-opacity="1" stroke="#000000" stroke-opacity="1" stroke-width="3.2"/>
<circle clip-path="url(#clip5202)" cx="1697.67" cy="748.803" r="14" fill="#009af9" fill-rule="evenodd" fill-opacity="1" stroke="#000000" stroke-opacity="1" stroke-width="3.2"/>
<polyline clip-path="url(#clip5202)" style="stroke:#e26f46; stroke-width:4; stroke-opacity:1; fill:none" points="
  255.137,1448.82 339.992,1440.54 424.847,1428.38 509.703,1412.34 594.558,1392.41 679.413,1368.59 764.268,1340.9 849.123,1309.32 933.978,1273.86 1018.83,1234.51 
  1103.69,1191.28 1188.54,1144.17 1273.4,1093.17 1358.25,1038.29 1443.11,979.531 1527.96,916.884 1612.82,850.354 1697.67,779.941 
  "/>
<polyline clip-path="url(#clip5202)" style="stroke:#3da44d; stroke-width:4; stroke-opacity:1; fill:none" points="
  1782.53,687.665 1867.38,609.485 1952.24,527.421 2037.09,441.473 2121.95,351.642 2206.81,257.928 2291.66,160.33 
  "/>
<path clip-path="url(#clip5200)" d="
M266.041 447.115 L816.359 447.115 L816.359 205.195 L266.041 205.195  Z
  " fill="#ffffff" fill-rule="evenodd" fill-opacity="1"/>
<polyline clip-path="url(#clip5200)" style="stroke:#000000; stroke-width:4; stroke-opacity:1; fill:none" points="
  266.041,447.115 816.359,447.115 816.359,205.195 266.041,205.195 266.041,447.115 
  "/>
<circle clip-path="url(#clip5200)" cx="374.041" cy="265.675" r="21" fill="#009af9" fill-rule="evenodd" fill-opacity="1" stroke="#000000" stroke-opacity="1" stroke-width="3.2"/>
<g clip-path="url(#clip5200)">
<text style="fill:#000000; fill-opacity:1; font-family:Arial,Helvetica Neue,Helvetica,sans-serif; font-size:48px; text-anchor:start;" transform="rotate(0, 458.041, 283.175)" x="458.041" y="283.175">data</text>
</g>
<polyline clip-path="url(#clip5200)" style="stroke:#e26f46; stroke-width:4; stroke-opacity:1; fill:none" points="
  290.041,326.155 434.041,326.155 
  "/>
<g clip-path="url(#clip5200)">
<text style="fill:#000000; fill-opacity:1; font-family:Arial,Helvetica Neue,Helvetica,sans-serif; font-size:48px; text-anchor:start;" transform="rotate(0, 458.041, 343.655)" x="458.041" y="343.655">mallin sovitus</text>
</g>
<polyline clip-path="url(#clip5200)" style="stroke:#3da44d; stroke-width:4; stroke-opacity:1; fill:none" points="
  290.041,386.635 434.041,386.635 
  "/>
<g clip-path="url(#clip5200)">
<text style="fill:#000000; fill-opacity:1; font-family:Arial,Helvetica Neue,Helvetica,sans-serif; font-size:48px; text-anchor:start;" transform="rotate(0, 458.041, 404.135)" x="458.041" y="404.135">mallin ennuste</text>
</g>
</svg>
