<?xml version="1.0" encoding="utf-8"?>
<svg xmlns="http://www.w3.org/2000/svg" xmlns:xlink="http://www.w3.org/1999/xlink" width="600" height="400" viewBox="0 0 2400 1600">
<defs>
  <clipPath id="clip4400">
    <rect x="0" y="0" width="2400" height="1600"/>
  </clipPath>
</defs>
<path clip-path="url(#clip4400)" d="
M0 1600 L2400 1600 L2400 0 L0 0  Z
  " fill="#ffffff" fill-rule="evenodd" fill-opacity="1"/>
<defs>
  <clipPath id="clip4401">
    <rect x="480" y="0" width="1681" height="1600"/>
  </clipPath>
</defs>
<path clip-path="url(#clip4400)" d="
M194.041 1487.47 L2352.76 1487.47 L2352.76 121.675 L194.041 121.675  Z
  " fill="#ffffff" fill-rule="evenodd" fill-opacity="1"/>
<defs>
  <clipPath id="clip4402">
    <rect x="194" y="121" width="2160" height="1367"/>
  </clipPath>
</defs>
<polyline clip-path="url(#clip4402)" style="stroke:#000000; stroke-width:2; stroke-opacity:0.1; fill:none" points="
  234.566,1487.47 234.566,121.675 
  "/>
<polyline clip-path="url(#clip4402)" style="stroke:#000000; stroke-width:2; stroke-opacity:0.1; fill:none" points="
  748.84,1487.47 748.84,121.675 
  "/>
<polyline clip-path="url(#clip4402)" style="stroke:#000000; stroke-width:2; stroke-opacity:0.1; fill:none" points="
  1263.11,1487.47 1263.11,121.675 
  "/>
<polyline clip-path="url(#clip4402)" style="stroke:#000000; stroke-width:2; stroke-opacity:0.1; fill:none" points="
  1777.39,1487.47 1777.39,121.675 
  "/>
<polyline clip-path="url(#clip4402)" style="stroke:#000000; stroke-width:2; stroke-opacity:0.1; fill:none" points="
  2291.66,1487.47 2291.66,121.675 
  "/>
<polyline clip-path="url(#clip4402)" style="stroke:#000000; stroke-width:2; stroke-opacity:0.1; fill:none" points="
  194.041,1455 2352.76,1455 
  "/>
<polyline clip-path="url(#clip4402)" style="stroke:#000000; stroke-width:2; stroke-opacity:0.1; fill:none" points="
  194.041,1193.21 2352.76,1193.21 
  "/>
<polyline clip-path="url(#clip4402)" style="stroke:#000000; stroke-width:2; stroke-opacity:0.1; fill:none" points="
  194.041,931.408 2352.76,931.408 
  "/>
<polyline clip-path="url(#clip4402)" style="stroke:#000000; stroke-width:2; stroke-opacity:0.1; fill:none" points="
  194.041,669.61 2352.76,669.61 
  "/>
<polyline clip-path="url(#clip4402)" style="stroke:#000000; stroke-width:2; stroke-opacity:0.1; fill:none" points="
  194.041,407.811 2352.76,407.811 
  "/>
<polyline clip-path="url(#clip4402)" style="stroke:#000000; stroke-width:2; stroke-opacity:0.1; fill:none" points="
  194.041,146.013 2352.76,146.013 
  "/>
<polyline clip-path="url(#clip4400)" style="stroke:#000000; stroke-width:4; stroke-opacity:1; fill:none" points="
  194.041,1487.47 2352.76,1487.47 
  "/>
<polyline clip-path="url(#clip4400)" style="stroke:#000000; stroke-width:4; stroke-opacity:1; fill:none" points="
  194.041,1487.47 194.041,121.675 
  "/>
<polyline clip-path="url(#clip4400)" style="stroke:#000000; stroke-width:4; stroke-opacity:1; fill:none" points="
  234.566,1487.47 234.566,1471.09 
  "/>
<polyline clip-path="url(#clip4400)" style="stroke:#000000; stroke-width:4; stroke-opacity:1; fill:none" points="
  748.84,1487.47 748.84,1471.09 
  "/>
<polyline clip-path="url(#clip4400)" style="stroke:#000000; stroke-width:4; stroke-opacity:1; fill:none" points="
  1263.11,1487.47 1263.11,1471.09 
  "/>
<polyline clip-path="url(#clip4400)" style="stroke:#000000; stroke-width:4; stroke-opacity:1; fill:none" points="
  1777.39,1487.47 1777.39,1471.09 
  "/>
<polyline clip-path="url(#clip4400)" style="stroke:#000000; stroke-width:4; stroke-opacity:1; fill:none" points="
  2291.66,1487.47 2291.66,1471.09 
  "/>
<polyline clip-path="url(#clip4400)" style="stroke:#000000; stroke-width:4; stroke-opacity:1; fill:none" points="
  194.041,1455 219.946,1455 
  "/>
<polyline clip-path="url(#clip4400)" style="stroke:#000000; stroke-width:4; stroke-opacity:1; fill:none" points="
  194.041,1193.21 219.946,1193.21 
  "/>
<polyline clip-path="url(#clip4400)" style="stroke:#000000; stroke-width:4; stroke-opacity:1; fill:none" points="
  194.041,931.408 219.946,931.408 
  "/>
<polyline clip-path="url(#clip4400)" style="stroke:#000000; stroke-width:4; stroke-opacity:1; fill:none" points="
  194.041,669.61 219.946,669.61 
  "/>
<polyline clip-path="url(#clip4400)" style="stroke:#000000; stroke-width:4; stroke-opacity:1; fill:none" points="
  194.041,407.811 219.946,407.811 
  "/>
<polyline clip-path="url(#clip4400)" style="stroke:#000000; stroke-width:4; stroke-opacity:1; fill:none" points="
  194.041,146.013 219.946,146.013 
  "/>
<g clip-path="url(#clip4400)">
<text style="fill:#000000; fill-opacity:1; font-family:Arial,Helvetica Neue,Helvetica,sans-serif; font-size:48px; text-anchor:middle;" transform="rotate(0, 234.566, 1541.47)" x="234.566" y="1541.47">0</text>
</g>
<g clip-path="url(#clip4400)">
<text style="fill:#000000; fill-opacity:1; font-family:Arial,Helvetica Neue,Helvetica,sans-serif; font-size:48px; text-anchor:middle;" transform="rotate(0, 748.84, 1541.47)" x="748.84" y="1541.47">25</text>
</g>
<g clip-path="url(#clip4400)">
<text style="fill:#000000; fill-opacity:1; font-family:Arial,Helvetica Neue,Helvetica,sans-serif; font-size:48px; text-anchor:middle;" transform="rotate(0, 1263.11, 1541.47)" x="1263.11" y="1541.47">50</text>
</g>
<g clip-path="url(#clip4400)">
<text style="fill:#000000; fill-opacity:1; font-family:Arial,Helvetica Neue,Helvetica,sans-serif; font-size:48px; text-anchor:middle;" transform="rotate(0, 1777.39, 1541.47)" x="1777.39" y="1541.47">75</text>
</g>
<g clip-path="url(#clip4400)">
<text style="fill:#000000; fill-opacity:1; font-family:Arial,Helvetica Neue,Helvetica,sans-serif; font-size:48px; text-anchor:middle;" transform="rotate(0, 2291.66, 1541.47)" x="2291.66" y="1541.47">100</text>
</g>
<g clip-path="url(#clip4400)">
<text style="fill:#000000; fill-opacity:1; font-family:Arial,Helvetica Neue,Helvetica,sans-serif; font-size:48px; text-anchor:end;" transform="rotate(0, 170.041, 1472.5)" x="170.041" y="1472.5">0</text>
</g>
<g clip-path="url(#clip4400)">
<text style="fill:#000000; fill-opacity:1; font-family:Arial,Helvetica Neue,Helvetica,sans-serif; font-size:48px; text-anchor:end;" transform="rotate(0, 170.041, 1210.71)" x="170.041" y="1210.71">500</text>
</g>
<g clip-path="url(#clip4400)">
<text style="fill:#000000; fill-opacity:1; font-family:Arial,Helvetica Neue,Helvetica,sans-serif; font-size:48px; text-anchor:end;" transform="rotate(0, 170.041, 948.908)" x="170.041" y="948.908">1000</text>
</g>
<g clip-path="url(#clip4400)">
<text style="fill:#000000; fill-opacity:1; font-family:Arial,Helvetica Neue,Helvetica,sans-serif; font-size:48px; text-anchor:end;" transform="rotate(0, 170.041, 687.11)" x="170.041" y="687.11">1500</text>
</g>
<g clip-path="url(#clip4400)">
<text style="fill:#000000; fill-opacity:1; font-family:Arial,Helvetica Neue,Helvetica,sans-serif; font-size:48px; text-anchor:end;" transform="rotate(0, 170.041, 425.311)" x="170.041" y="425.311">2000</text>
</g>
<g clip-path="url(#clip4400)">
<text style="fill:#000000; fill-opacity:1; font-family:Arial,Helvetica Neue,Helvetica,sans-serif; font-size:48px; text-anchor:end;" transform="rotate(0, 170.041, 163.513)" x="170.041" y="163.513">2500</text>
</g>
<g clip-path="url(#clip4400)">
<text style="fill:#000000; fill-opacity:1; font-family:Arial,Helvetica Neue,Helvetica,sans-serif; font-size:84px; text-anchor:middle;" transform="rotate(0, 1273.4, 73.2)" x="1273.4" y="73.2">COVID-19-China: neuroverkon kustannusfunktio</text>
</g>
<polyline clip-path="url(#clip4402)" style="stroke:#000000; stroke-width:4; stroke-opacity:1; fill:none" points="
  255.137,160.33 275.708,249.966 296.279,333.371 316.85,410.979 337.421,483.192 357.992,550.386 378.563,612.909 399.134,671.085 419.705,725.218 440.276,775.588 
  460.847,822.457 481.418,866.068 501.988,906.647 522.559,944.406 543.13,979.54 563.701,1012.23 584.272,1042.65 604.843,1070.96 625.414,1097.29 645.985,1121.8 
  666.556,1144.6 687.127,1165.82 707.698,1185.56 728.269,1203.94 748.84,1221.03 769.411,1236.93 789.982,1251.73 810.553,1265.51 831.123,1278.32 851.694,1290.24 
  872.265,1301.34 892.836,1311.66 913.407,1321.27 933.978,1330.2 954.549,1338.52 975.12,1346.26 995.691,1353.46 1016.26,1360.16 1036.83,1366.39 1057.4,1372.2 
  1077.97,1377.59 1098.55,1382.62 1119.12,1387.29 1139.69,1391.64 1160.26,1395.68 1180.83,1399.45 1201.4,1402.95 1221.97,1406.21 1242.54,1409.25 1263.11,1412.07 
  1283.68,1414.69 1304.26,1417.14 1324.83,1419.41 1345.4,1421.53 1365.97,1423.5 1386.54,1425.33 1407.11,1427.03 1427.68,1428.62 1448.25,1430.09 1468.82,1431.47 
  1489.39,1432.75 1509.96,1433.93 1530.54,1435.04 1551.11,1436.07 1571.68,1437.03 1592.25,1437.92 1612.82,1438.75 1633.39,1439.52 1653.96,1440.24 1674.53,1440.91 
  1695.1,1441.53 1715.67,1442.11 1736.24,1442.64 1756.82,1443.15 1777.39,1443.61 1797.96,1444.05 1818.53,1444.45 1839.1,1444.82 1859.67,1445.17 1880.24,1445.5 
  1900.81,1445.8 1921.38,1446.08 1941.95,1446.34 1962.53,1446.59 1983.1,1446.81 2003.67,1447.03 2024.24,1447.22 2044.81,1447.4 2065.38,1447.57 2085.95,1447.73 
  2106.52,1447.88 2127.09,1448.02 2147.66,1448.14 2168.23,1448.26 2188.81,1448.37 2209.38,1448.48 2229.95,1448.57 2250.52,1448.66 2271.09,1448.74 2291.66,1448.82 
  
  "/>
<path clip-path="url(#clip4400)" d="
M2016.69 326.155 L2280.76 326.155 L2280.76 205.195 L2016.69 205.195  Z
  " fill="#ffffff" fill-rule="evenodd" fill-opacity="1"/>
<polyline clip-path="url(#clip4400)" style="stroke:#000000; stroke-width:4; stroke-opacity:1; fill:none" points="
  2016.69,326.155 2280.76,326.155 2280.76,205.195 2016.69,205.195 2016.69,326.155 
  "/>
<polyline clip-path="url(#clip4400)" style="stroke:#000000; stroke-width:4; stroke-opacity:1; fill:none" points="
  2040.69,265.675 2184.69,265.675 
  "/>
<g clip-path="url(#clip4400)">
<text style="fill:#000000; fill-opacity:1; font-family:Arial,Helvetica Neue,Helvetica,sans-serif; font-size:48px; text-anchor:start;" transform="rotate(0, 2208.69, 283.175)" x="2208.69" y="283.175">J</text>
</g>
</svg>
