<?xml version="1.0" encoding="utf-8"?>
<svg xmlns="http://www.w3.org/2000/svg" xmlns:xlink="http://www.w3.org/1999/xlink" width="600" height="400" viewBox="0 0 2400 1600">
<defs>
  <clipPath id="clip6600">
    <rect x="0" y="0" width="2400" height="1600"/>
  </clipPath>
</defs>
<path clip-path="url(#clip6600)" d="
M0 1600 L2400 1600 L2400 0 L0 0  Z
  " fill="#ffffff" fill-rule="evenodd" fill-opacity="1"/>
<defs>
  <clipPath id="clip6601">
    <rect x="480" y="0" width="1681" height="1600"/>
  </clipPath>
</defs>
<path clip-path="url(#clip6600)" d="
M140.517 1487.47 L2352.76 1487.47 L2352.76 47.2441 L140.517 47.2441  Z
  " fill="#ffffff" fill-rule="evenodd" fill-opacity="1"/>
<defs>
  <clipPath id="clip6602">
    <rect x="140" y="47" width="2213" height="1441"/>
  </clipPath>
</defs>
<polyline clip-path="url(#clip6602)" style="stroke:#000000; stroke-width:2; stroke-opacity:0.1; fill:none" points="
  411.829,1487.47 411.829,47.2441 
  "/>
<polyline clip-path="url(#clip6602)" style="stroke:#000000; stroke-width:2; stroke-opacity:0.1; fill:none" points="
  829.233,1487.47 829.233,47.2441 
  "/>
<polyline clip-path="url(#clip6602)" style="stroke:#000000; stroke-width:2; stroke-opacity:0.1; fill:none" points="
  1246.64,1487.47 1246.64,47.2441 
  "/>
<polyline clip-path="url(#clip6602)" style="stroke:#000000; stroke-width:2; stroke-opacity:0.1; fill:none" points="
  1664.04,1487.47 1664.04,47.2441 
  "/>
<polyline clip-path="url(#clip6602)" style="stroke:#000000; stroke-width:2; stroke-opacity:0.1; fill:none" points="
  2081.44,1487.47 2081.44,47.2441 
  "/>
<polyline clip-path="url(#clip6602)" style="stroke:#000000; stroke-width:2; stroke-opacity:0.1; fill:none" points="
  140.517,1446.71 2352.76,1446.71 
  "/>
<polyline clip-path="url(#clip6602)" style="stroke:#000000; stroke-width:2; stroke-opacity:0.1; fill:none" points="
  140.517,1102.73 2352.76,1102.73 
  "/>
<polyline clip-path="url(#clip6602)" style="stroke:#000000; stroke-width:2; stroke-opacity:0.1; fill:none" points="
  140.517,758.743 2352.76,758.743 
  "/>
<polyline clip-path="url(#clip6602)" style="stroke:#000000; stroke-width:2; stroke-opacity:0.1; fill:none" points="
  140.517,414.757 2352.76,414.757 
  "/>
<polyline clip-path="url(#clip6602)" style="stroke:#000000; stroke-width:2; stroke-opacity:0.1; fill:none" points="
  140.517,70.7715 2352.76,70.7715 
  "/>
<polyline clip-path="url(#clip6600)" style="stroke:#000000; stroke-width:4; stroke-opacity:1; fill:none" points="
  140.517,1487.47 2352.76,1487.47 
  "/>
<polyline clip-path="url(#clip6600)" style="stroke:#000000; stroke-width:4; stroke-opacity:1; fill:none" points="
  140.517,1487.47 140.517,47.2441 
  "/>
<polyline clip-path="url(#clip6600)" style="stroke:#000000; stroke-width:4; stroke-opacity:1; fill:none" points="
  411.829,1487.47 411.829,1470.19 
  "/>
<polyline clip-path="url(#clip6600)" style="stroke:#000000; stroke-width:4; stroke-opacity:1; fill:none" points="
  829.233,1487.47 829.233,1470.19 
  "/>
<polyline clip-path="url(#clip6600)" style="stroke:#000000; stroke-width:4; stroke-opacity:1; fill:none" points="
  1246.64,1487.47 1246.64,1470.19 
  "/>
<polyline clip-path="url(#clip6600)" style="stroke:#000000; stroke-width:4; stroke-opacity:1; fill:none" points="
  1664.04,1487.47 1664.04,1470.19 
  "/>
<polyline clip-path="url(#clip6600)" style="stroke:#000000; stroke-width:4; stroke-opacity:1; fill:none" points="
  2081.44,1487.47 2081.44,1470.19 
  "/>
<polyline clip-path="url(#clip6600)" style="stroke:#000000; stroke-width:4; stroke-opacity:1; fill:none" points="
  140.517,1446.71 167.064,1446.71 
  "/>
<polyline clip-path="url(#clip6600)" style="stroke:#000000; stroke-width:4; stroke-opacity:1; fill:none" points="
  140.517,1102.73 167.064,1102.73 
  "/>
<polyline clip-path="url(#clip6600)" style="stroke:#000000; stroke-width:4; stroke-opacity:1; fill:none" points="
  140.517,758.743 167.064,758.743 
  "/>
<polyline clip-path="url(#clip6600)" style="stroke:#000000; stroke-width:4; stroke-opacity:1; fill:none" points="
  140.517,414.757 167.064,414.757 
  "/>
<polyline clip-path="url(#clip6600)" style="stroke:#000000; stroke-width:4; stroke-opacity:1; fill:none" points="
  140.517,70.7715 167.064,70.7715 
  "/>
<g clip-path="url(#clip6600)">
<text style="fill:#000000; fill-opacity:1; font-family:Arial,Helvetica Neue,Helvetica,sans-serif; font-size:48px; text-anchor:middle;" transform="rotate(0, 411.829, 1541.47)" x="411.829" y="1541.47">-4</text>
</g>
<g clip-path="url(#clip6600)">
<text style="fill:#000000; fill-opacity:1; font-family:Arial,Helvetica Neue,Helvetica,sans-serif; font-size:48px; text-anchor:middle;" transform="rotate(0, 829.233, 1541.47)" x="829.233" y="1541.47">-2</text>
</g>
<g clip-path="url(#clip6600)">
<text style="fill:#000000; fill-opacity:1; font-family:Arial,Helvetica Neue,Helvetica,sans-serif; font-size:48px; text-anchor:middle;" transform="rotate(0, 1246.64, 1541.47)" x="1246.64" y="1541.47">0</text>
</g>
<g clip-path="url(#clip6600)">
<text style="fill:#000000; fill-opacity:1; font-family:Arial,Helvetica Neue,Helvetica,sans-serif; font-size:48px; text-anchor:middle;" transform="rotate(0, 1664.04, 1541.47)" x="1664.04" y="1541.47">2</text>
</g>
<g clip-path="url(#clip6600)">
<text style="fill:#000000; fill-opacity:1; font-family:Arial,Helvetica Neue,Helvetica,sans-serif; font-size:48px; text-anchor:middle;" transform="rotate(0, 2081.44, 1541.47)" x="2081.44" y="1541.47">4</text>
</g>
<g clip-path="url(#clip6600)">
<text style="fill:#000000; fill-opacity:1; font-family:Arial,Helvetica Neue,Helvetica,sans-serif; font-size:48px; text-anchor:end;" transform="rotate(0, 116.517, 1464.21)" x="116.517" y="1464.21">0</text>
</g>
<g clip-path="url(#clip6600)">
<text style="fill:#000000; fill-opacity:1; font-family:Arial,Helvetica Neue,Helvetica,sans-serif; font-size:48px; text-anchor:end;" transform="rotate(0, 116.517, 1120.23)" x="116.517" y="1120.23">10</text>
</g>
<g clip-path="url(#clip6600)">
<text style="fill:#000000; fill-opacity:1; font-family:Arial,Helvetica Neue,Helvetica,sans-serif; font-size:48px; text-anchor:end;" transform="rotate(0, 116.517, 776.243)" x="116.517" y="776.243">20</text>
</g>
<g clip-path="url(#clip6600)">
<text style="fill:#000000; fill-opacity:1; font-family:Arial,Helvetica Neue,Helvetica,sans-serif; font-size:48px; text-anchor:end;" transform="rotate(0, 116.517, 432.257)" x="116.517" y="432.257">30</text>
</g>
<g clip-path="url(#clip6600)">
<text style="fill:#000000; fill-opacity:1; font-family:Arial,Helvetica Neue,Helvetica,sans-serif; font-size:48px; text-anchor:end;" transform="rotate(0, 116.517, 88.2715)" x="116.517" y="88.2715">40</text>
</g>
<polyline clip-path="url(#clip6602)" style="stroke:#009af9; stroke-width:4; stroke-opacity:1; fill:none" points="
  203.127,583.724 205.214,584.459 207.301,584.341 209.388,583.38 211.475,581.587 213.562,578.974 215.649,575.556 217.736,571.352 219.823,566.378 221.911,560.658 
  223.998,554.212 226.085,547.066 228.172,539.247 230.259,530.781 232.346,521.699 234.433,512.031 236.52,501.811 238.607,491.072 240.694,479.848 242.781,468.178 
  244.868,456.097 246.955,443.645 249.042,430.86 251.129,417.783 253.216,404.456 255.303,390.918 257.39,377.213 259.477,363.383 261.564,349.471 263.651,335.518 
  265.738,321.57 267.825,307.667 269.912,293.854 271.999,280.172 274.086,266.665 276.173,253.373 278.26,240.338 280.347,227.601 282.434,215.201 284.521,203.177 
  286.608,191.568 288.695,180.41 290.782,169.739 292.869,159.589 294.956,149.995 297.043,140.987 299.13,132.596 301.217,124.851 303.304,117.779 305.391,111.405 
  307.478,105.753 309.565,100.846 311.652,96.7018 313.739,93.3401 315.826,90.7766 317.913,89.0253 320,88.0982 322.087,88.0053 324.174,88.7546 326.261,90.3516 
  328.348,92.8001 330.435,96.1014 332.522,100.255 334.609,105.258 336.696,111.105 338.784,117.789 340.871,125.302 342.958,133.631 345.045,142.764 347.132,152.684 
  349.219,163.375 351.306,174.818 353.393,186.99 355.48,199.87 357.567,213.431 359.654,227.648 361.741,242.493 363.828,257.935 365.915,273.943 368.002,290.485 
  370.089,307.527 372.176,325.032 374.263,342.965 376.35,361.288 378.437,379.962 380.524,398.948 382.611,418.205 384.698,437.692 386.785,457.369 388.872,477.192 
  390.959,497.12 393.046,517.109 395.133,537.116 397.22,557.1 399.307,577.016 401.394,596.821 403.481,616.475 405.568,635.933 407.655,655.155 409.742,674.099 
  411.829,692.726 413.916,710.994 416.003,728.866 418.09,746.304 420.177,763.27 422.264,779.73 424.351,795.649 426.438,810.993 428.525,825.732 430.612,839.836 
  432.699,853.275 434.786,866.023 436.873,878.055 438.96,889.347 441.047,899.878 443.134,909.628 445.221,918.579 447.308,926.716 449.395,934.025 451.482,940.494 
  453.57,946.113 455.657,950.876 457.744,954.776 459.831,957.81 461.918,959.978 464.005,961.281 466.092,961.721 468.179,961.303 470.266,960.037 472.353,957.93 
  474.44,954.995 476.527,951.245 478.614,946.696 480.701,941.366 482.788,935.275 484.875,928.443 486.962,920.895 489.049,912.655 491.136,903.75 493.223,894.209 
  495.31,884.062 497.397,873.341 499.484,862.077 501.571,850.307 503.658,838.064 505.745,825.387 507.832,812.312 509.919,798.879 512.006,785.127 514.093,771.097 
  516.18,756.83 518.267,742.367 520.354,727.751 522.441,713.023 524.528,698.228 526.615,683.408 528.702,668.605 530.789,653.863 532.876,639.225 534.963,624.733 
  537.05,610.429 539.137,596.354 541.224,582.55 543.311,569.058 545.398,555.915 547.485,543.162 549.572,530.836 551.659,518.974 553.746,507.61 555.833,496.779 
  557.92,486.513 560.007,476.845 562.094,467.804 564.181,459.417 566.268,451.713 568.355,444.715 570.443,438.446 572.53,432.929 574.617,428.182 576.704,424.222 
  578.791,421.066 580.878,418.726 582.965,417.214 585.052,416.539 587.139,416.708 589.226,417.727 591.313,419.597 593.4,422.321 595.487,425.896 597.574,430.319 
  599.661,435.584 601.748,441.684 603.835,448.608 605.922,456.344 608.009,464.879 610.096,474.196 612.183,484.278 614.27,495.103 616.357,506.652 618.444,518.899 
  620.531,531.819 622.618,545.386 624.705,559.571 626.792,574.342 628.879,589.669 630.966,605.519 633.053,621.855 635.14,638.644 637.227,655.848 639.314,673.429 
  641.401,691.347 643.488,709.564 645.575,728.039 647.662,746.731 649.749,765.597 651.836,784.595 653.923,803.684 656.01,822.819 658.097,841.959 660.184,861.06 
  662.271,880.079 664.358,898.974 666.445,917.702 668.532,936.221 670.619,954.489 672.706,972.466 674.793,990.112 676.88,1007.39 678.967,1024.25 681.054,1040.67 
  683.141,1056.61 685.229,1072.02 687.316,1086.89 689.403,1101.17 691.49,1114.83 693.577,1127.85 695.664,1140.2 697.751,1151.84 699.838,1162.76 701.925,1172.94 
  704.012,1182.34 706.099,1190.96 708.186,1198.78 710.273,1205.77 712.36,1211.93 714.447,1217.25 716.534,1221.72 718.621,1225.33 720.708,1228.07 722.795,1229.95 
  724.882,1230.97 726.969,1231.11 729.056,1230.4 731.143,1228.83 733.23,1226.42 735.317,1223.16 737.404,1219.09 739.491,1214.2 741.578,1208.53 743.665,1202.07 
  745.752,1194.87 747.839,1186.93 749.926,1178.28 752.013,1168.95 754.1,1158.96 756.187,1148.35 758.274,1137.14 760.361,1125.37 762.448,1113.06 764.535,1100.27 
  766.622,1087.01 768.709,1073.33 770.796,1059.27 772.883,1044.86 774.97,1030.14 777.057,1015.16 779.144,999.961 781.231,984.577 783.318,969.054 785.405,953.434 
  787.492,937.761 789.579,922.078 791.666,906.426 793.753,890.85 795.84,875.391 797.927,860.093 800.014,844.997 802.102,830.145 804.189,815.576 806.276,801.333 
  808.363,787.453 810.45,773.974 812.537,760.936 814.624,748.372 816.711,736.319 818.798,724.81 820.885,713.878 822.972,703.553 825.059,693.864 827.146,684.84 
  829.233,676.505 831.32,668.886 833.407,662.003 835.494,655.878 837.581,650.529 839.668,645.974 841.755,642.226 843.842,639.299 845.929,637.203 848.016,635.947 
  850.103,635.536 852.19,635.977 854.277,637.27 856.364,639.416 858.451,642.412 860.538,646.254 862.625,650.936 864.712,656.45 866.799,662.784 868.886,669.926 
  870.973,677.861 873.06,686.573 875.147,696.042 877.234,706.249 879.321,717.171 881.408,728.783 883.495,741.059 885.582,753.973 887.669,767.493 889.756,781.591 
  891.843,796.233 893.93,811.385 896.017,827.014 898.104,843.082 900.191,859.552 902.278,876.386 904.365,893.545 906.452,910.989 908.539,928.677 910.626,946.567 
  912.713,964.618 914.8,982.787 916.888,1001.03 918.975,1019.31 921.062,1037.58 923.149,1055.79 925.236,1073.91 927.323,1091.89 929.41,1109.68 931.497,1127.26 
  933.584,1144.57 935.671,1161.57 937.758,1178.24 939.845,1194.51 941.932,1210.37 944.019,1225.76 946.106,1240.66 948.193,1255.03 950.28,1268.84 952.367,1282.05 
  954.454,1294.64 956.541,1306.57 958.628,1317.82 960.715,1328.36 962.802,1338.16 964.889,1347.22 966.976,1355.5 969.063,1362.98 971.15,1369.66 973.237,1375.51 
  975.324,1380.53 977.411,1384.7 979.498,1388.01 981.585,1390.46 983.672,1392.05 985.759,1392.78 987.846,1392.63 989.933,1391.63 992.02,1389.76 994.107,1387.04 
  996.194,1383.48 998.281,1379.08 1000.37,1373.87 1002.46,1367.85 1004.54,1361.05 1006.63,1353.47 1008.72,1345.15 1010.8,1336.11 1012.89,1326.36 1014.98,1315.94 
  1017.06,1304.88 1019.15,1293.2 1021.24,1280.93 1023.33,1268.11 1025.41,1254.77 1027.5,1240.95 1029.59,1226.69 1031.67,1212.01 1033.76,1196.96 1035.85,1181.58 
  1037.93,1165.91 1040.02,1149.98 1042.11,1133.85 1044.2,1117.55 1046.28,1101.12 1048.37,1084.62 1050.46,1068.07 1052.54,1051.53 1054.63,1035.03 1056.72,1018.63 
  1058.8,1002.35 1060.89,986.255 1062.98,970.372 1065.07,954.746 1067.15,939.418 1069.24,924.427 1071.33,909.814 1073.41,895.615 1075.5,881.867 1077.59,868.607 
  1079.67,855.869 1081.76,843.686 1083.85,832.09 1085.94,821.111 1088.02,810.778 1090.11,801.118 1092.2,792.157 1094.28,783.918 1096.37,776.424 1098.46,769.693 
  1100.55,763.745 1102.63,758.595 1104.72,754.258 1106.81,750.744 1108.89,748.065 1110.98,746.228 1113.07,745.239 1115.15,745.102 1117.24,745.817 1119.33,747.385 
  1121.42,749.801 1123.5,753.063 1125.59,757.161 1127.68,762.087 1129.76,767.83 1131.85,774.376 1133.94,781.71 1136.02,789.814 1138.11,798.669 1140.2,808.255 
  1142.29,818.547 1144.37,829.521 1146.46,841.15 1148.55,853.406 1150.63,866.26 1152.72,879.68 1154.81,893.633 1156.89,908.085 1158.98,923 1161.07,938.343 
  1163.16,954.076 1165.24,970.159 1167.33,986.554 1169.42,1003.22 1171.5,1020.12 1173.59,1037.2 1175.68,1054.43 1177.76,1071.77 1179.85,1089.16 1181.94,1106.58 
  1184.03,1123.96 1186.11,1141.29 1188.2,1158.5 1190.29,1175.56 1192.37,1192.42 1194.46,1209.04 1196.55,1225.39 1198.63,1241.42 1200.72,1257.09 1202.81,1272.37 
  1204.9,1287.21 1206.98,1301.58 1209.07,1315.44 1211.16,1328.76 1213.24,1341.5 1215.33,1353.64 1217.42,1365.15 1219.51,1375.99 1221.59,1386.14 1223.68,1395.57 
  1225.77,1404.26 1227.85,1412.19 1229.94,1419.34 1232.03,1425.69 1234.11,1431.23 1236.2,1435.93 1238.29,1439.8 1240.38,1442.82 1242.46,1444.98 1244.55,1446.28 
  1246.64,1446.71 1248.72,1446.28 1250.81,1444.98 1252.9,1442.82 1254.98,1439.8 1257.07,1435.93 1259.16,1431.23 1261.25,1425.69 1263.33,1419.34 1265.42,1412.19 
  1267.51,1404.26 1269.59,1395.57 1271.68,1386.14 1273.77,1375.99 1275.85,1365.15 1277.94,1353.64 1280.03,1341.5 1282.12,1328.76 1284.2,1315.44 1286.29,1301.58 
  1288.38,1287.21 1290.46,1272.37 1292.55,1257.09 1294.64,1241.42 1296.72,1225.39 1298.81,1209.04 1300.9,1192.42 1302.99,1175.56 1305.07,1158.5 1307.16,1141.29 
  1309.25,1123.96 1311.33,1106.58 1313.42,1089.16 1315.51,1071.77 1317.59,1054.43 1319.68,1037.2 1321.77,1020.12 1323.86,1003.22 1325.94,986.554 1328.03,970.159 
  1330.12,954.076 1332.2,938.343 1334.29,923 1336.38,908.085 1338.47,893.633 1340.55,879.68 1342.64,866.26 1344.73,853.406 1346.81,841.15 1348.9,829.521 
  1350.99,818.547 1353.07,808.255 1355.16,798.669 1357.25,789.814 1359.34,781.71 1361.42,774.376 1363.51,767.83 1365.6,762.087 1367.68,757.161 1369.77,753.063 
  1371.86,749.801 1373.94,747.385 1376.03,745.817 1378.12,745.102 1380.21,745.239 1382.29,746.228 1384.38,748.065 1386.47,750.744 1388.55,754.258 1390.64,758.595 
  1392.73,763.745 1394.81,769.693 1396.9,776.424 1398.99,783.918 1401.08,792.157 1403.16,801.118 1405.25,810.778 1407.34,821.111 1409.42,832.09 1411.51,843.686 
  1413.6,855.869 1415.68,868.607 1417.77,881.867 1419.86,895.615 1421.95,909.814 1424.03,924.427 1426.12,939.418 1428.21,954.746 1430.29,970.372 1432.38,986.255 
  1434.47,1002.35 1436.55,1018.63 1438.64,1035.03 1440.73,1051.53 1442.82,1068.07 1444.9,1084.62 1446.99,1101.12 1449.08,1117.55 1451.16,1133.85 1453.25,1149.98 
  1455.34,1165.91 1457.43,1181.58 1459.51,1196.96 1461.6,1212.01 1463.69,1226.69 1465.77,1240.95 1467.86,1254.77 1469.95,1268.11 1472.03,1280.93 1474.12,1293.2 
  1476.21,1304.88 1478.3,1315.94 1480.38,1326.36 1482.47,1336.11 1484.56,1345.15 1486.64,1353.47 1488.73,1361.05 1490.82,1367.85 1492.9,1373.87 1494.99,1379.08 
  1497.08,1383.48 1499.17,1387.04 1501.25,1389.76 1503.34,1391.63 1505.43,1392.63 1507.51,1392.78 1509.6,1392.05 1511.69,1390.46 1513.77,1388.01 1515.86,1384.7 
  1517.95,1380.53 1520.04,1375.51 1522.12,1369.66 1524.21,1362.98 1526.3,1355.5 1528.38,1347.22 1530.47,1338.16 1532.56,1328.36 1534.64,1317.82 1536.73,1306.57 
  1538.82,1294.64 1540.91,1282.05 1542.99,1268.84 1545.08,1255.03 1547.17,1240.66 1549.25,1225.76 1551.34,1210.37 1553.43,1194.51 1555.52,1178.24 1557.6,1161.57 
  1559.69,1144.57 1561.78,1127.26 1563.86,1109.68 1565.95,1091.89 1568.04,1073.91 1570.12,1055.79 1572.21,1037.58 1574.3,1019.31 1576.39,1001.03 1578.47,982.787 
  1580.56,964.618 1582.65,946.567 1584.73,928.677 1586.82,910.989 1588.91,893.545 1590.99,876.386 1593.08,859.552 1595.17,843.082 1597.26,827.014 1599.34,811.385 
  1601.43,796.233 1603.52,781.591 1605.6,767.493 1607.69,753.973 1609.78,741.059 1611.86,728.783 1613.95,717.171 1616.04,706.249 1618.13,696.042 1620.21,686.573 
  1622.3,677.861 1624.39,669.926 1626.47,662.784 1628.56,656.45 1630.65,650.936 1632.73,646.254 1634.82,642.412 1636.91,639.416 1639,637.27 1641.08,635.977 
  1643.17,635.536 1645.26,635.947 1647.34,637.203 1649.43,639.299 1651.52,642.226 1653.6,645.974 1655.69,650.529 1657.78,655.878 1659.87,662.003 1661.95,668.886 
  1664.04,676.505 1666.13,684.84 1668.21,693.864 1670.3,703.553 1672.39,713.878 1674.48,724.81 1676.56,736.319 1678.65,748.372 1680.74,760.936 1682.82,773.974 
  1684.91,787.453 1687,801.333 1689.08,815.576 1691.17,830.145 1693.26,844.997 1695.35,860.093 1697.43,875.391 1699.52,890.85 1701.61,906.426 1703.69,922.078 
  1705.78,937.761 1707.87,953.434 1709.95,969.054 1712.04,984.577 1714.13,999.961 1716.22,1015.16 1718.3,1030.14 1720.39,1044.86 1722.48,1059.27 1724.56,1073.33 
  1726.65,1087.01 1728.74,1100.27 1730.82,1113.06 1732.91,1125.37 1735,1137.14 1737.09,1148.35 1739.17,1158.96 1741.26,1168.95 1743.35,1178.28 1745.43,1186.93 
  1747.52,1194.87 1749.61,1202.07 1751.69,1208.53 1753.78,1214.2 1755.87,1219.09 1757.96,1223.16 1760.04,1226.42 1762.13,1228.83 1764.22,1230.4 1766.3,1231.11 
  1768.39,1230.97 1770.48,1229.95 1772.56,1228.07 1774.65,1225.33 1776.74,1221.72 1778.83,1217.25 1780.91,1211.93 1783,1205.77 1785.09,1198.78 1787.17,1190.96 
  1789.26,1182.34 1791.35,1172.94 1793.44,1162.76 1795.52,1151.84 1797.61,1140.2 1799.7,1127.85 1801.78,1114.83 1803.87,1101.17 1805.96,1086.89 1808.04,1072.02 
  1810.13,1056.61 1812.22,1040.67 1814.31,1024.25 1816.39,1007.39 1818.48,990.112 1820.57,972.466 1822.65,954.489 1824.74,936.221 1826.83,917.702 1828.91,898.974 
  1831,880.079 1833.09,861.06 1835.18,841.959 1837.26,822.819 1839.35,803.684 1841.44,784.595 1843.52,765.597 1845.61,746.731 1847.7,728.039 1849.78,709.564 
  1851.87,691.347 1853.96,673.429 1856.05,655.848 1858.13,638.644 1860.22,621.855 1862.31,605.519 1864.39,589.669 1866.48,574.342 1868.57,559.571 1870.65,545.386 
  1872.74,531.819 1874.83,518.899 1876.92,506.652 1879,495.103 1881.09,484.278 1883.18,474.196 1885.26,464.879 1887.35,456.344 1889.44,448.608 1891.52,441.684 
  1893.61,435.584 1895.7,430.319 1897.79,425.896 1899.87,422.321 1901.96,419.597 1904.05,417.727 1906.13,416.708 1908.22,416.539 1910.31,417.214 1912.4,418.726 
  1914.48,421.066 1916.57,424.222 1918.66,428.182 1920.74,432.929 1922.83,438.446 1924.92,444.715 1927,451.713 1929.09,459.417 1931.18,467.804 1933.27,476.845 
  1935.35,486.513 1937.44,496.779 1939.53,507.61 1941.61,518.974 1943.7,530.836 1945.79,543.162 1947.87,555.915 1949.96,569.058 1952.05,582.55 1954.14,596.354 
  1956.22,610.429 1958.31,624.733 1960.4,639.225 1962.48,653.863 1964.57,668.605 1966.66,683.408 1968.74,698.228 1970.83,713.023 1972.92,727.751 1975.01,742.367 
  1977.09,756.83 1979.18,771.097 1981.27,785.127 1983.35,798.879 1985.44,812.312 1987.53,825.387 1989.61,838.064 1991.7,850.307 1993.79,862.077 1995.88,873.341 
  1997.96,884.062 2000.05,894.209 2002.14,903.75 2004.22,912.655 2006.31,920.895 2008.4,928.443 2010.48,935.275 2012.57,941.366 2014.66,946.696 2016.75,951.245 
  2018.83,954.995 2020.92,957.93 2023.01,960.037 2025.09,961.303 2027.18,961.721 2029.27,961.281 2031.36,959.978 2033.44,957.81 2035.53,954.776 2037.62,950.876 
  2039.7,946.113 2041.79,940.494 2043.88,934.025 2045.96,926.716 2048.05,918.579 2050.14,909.628 2052.23,899.878 2054.31,889.347 2056.4,878.055 2058.49,866.023 
  2060.57,853.275 2062.66,839.836 2064.75,825.732 2066.83,810.993 2068.92,795.649 2071.01,779.73 2073.1,763.27 2075.18,746.304 2077.27,728.866 2079.36,710.994 
  2081.44,692.726 2083.53,674.099 2085.62,655.155 2087.7,635.933 2089.79,616.475 2091.88,596.821 2093.97,577.016 2096.05,557.1 2098.14,537.116 2100.23,517.109 
  2102.31,497.12 2104.4,477.192 2106.49,457.369 2108.57,437.692 2110.66,418.205 2112.75,398.948 2114.84,379.962 2116.92,361.288 2119.01,342.965 2121.1,325.032 
  2123.18,307.527 2125.27,290.485 2127.36,273.943 2129.44,257.935 2131.53,242.493 2133.62,227.648 2135.71,213.431 2137.79,199.87 2139.88,186.99 2141.97,174.818 
  2144.05,163.375 2146.14,152.684 2148.23,142.764 2150.32,133.631 2152.4,125.302 2154.49,117.789 2156.58,111.105 2158.66,105.258 2160.75,100.255 2162.84,96.1014 
  2164.92,92.8001 2167.01,90.3516 2169.1,88.7546 2171.19,88.0053 2173.27,88.0982 2175.36,89.0253 2177.45,90.7766 2179.53,93.3401 2181.62,96.7018 2183.71,100.846 
  2185.79,105.753 2187.88,111.405 2189.97,117.779 2192.06,124.851 2194.14,132.596 2196.23,140.987 2198.32,149.995 2200.4,159.589 2202.49,169.739 2204.58,180.41 
  2206.66,191.568 2208.75,203.177 2210.84,215.201 2212.93,227.601 2215.01,240.338 2217.1,253.373 2219.19,266.665 2221.27,280.172 2223.36,293.854 2225.45,307.667 
  2227.53,321.57 2229.62,335.518 2231.71,349.471 2233.8,363.383 2235.88,377.213 2237.97,390.918 2240.06,404.456 2242.14,417.783 2244.23,430.86 2246.32,443.645 
  2248.41,456.097 2250.49,468.178 2252.58,479.848 2254.67,491.072 2256.75,501.811 2258.84,512.031 2260.93,521.699 2263.01,530.781 2265.1,539.247 2267.19,547.066 
  2269.28,554.212 2271.36,560.658 2273.45,566.378 2275.54,571.352 2277.62,575.556 2279.71,578.974 2281.8,581.587 2283.88,583.38 2285.97,584.341 2288.06,584.459 
  2290.15,583.724 
  "/>
<path clip-path="url(#clip6600)" d="
M1989.93 251.724 L2280.76 251.724 L2280.76 130.764 L1989.93 130.764  Z
  " fill="#ffffff" fill-rule="evenodd" fill-opacity="1"/>
<polyline clip-path="url(#clip6600)" style="stroke:#000000; stroke-width:4; stroke-opacity:1; fill:none" points="
  1989.93,251.724 2280.76,251.724 2280.76,130.764 1989.93,130.764 1989.93,251.724 
  "/>
<polyline clip-path="url(#clip6600)" style="stroke:#009af9; stroke-width:4; stroke-opacity:1; fill:none" points="
  2013.93,191.244 2157.93,191.244 
  "/>
<g clip-path="url(#clip6600)">
<text style="fill:#000000; fill-opacity:1; font-family:Arial,Helvetica Neue,Helvetica,sans-serif; font-size:48px; text-anchor:start;" transform="rotate(0, 2181.93, 208.744)" x="2181.93" y="208.744">y1</text>
</g>
</svg>
