<?xml version="1.0" encoding="utf-8" standalone="no"?>
<!DOCTYPE svg PUBLIC "-//W3C//DTD SVG 1.1//EN"
  "http://www.w3.org/Graphics/SVG/1.1/DTD/svg11.dtd">
<!-- Created with matplotlib (https://matplotlib.org/) -->
<svg height="360pt" version="1.1" viewBox="0 0 720 360" width="720pt" xmlns="http://www.w3.org/2000/svg" xmlns:xlink="http://www.w3.org/1999/xlink">
 <defs>
  <style type="text/css">
*{stroke-linecap:butt;stroke-linejoin:round;}
  </style>
 </defs>
 <g id="figure_1">
  <g id="patch_1">
   <path d="M 0 360 
L 720 360 
L 720 0 
L 0 0 
z
" style="fill:#ffffff;"/>
  </g>
  <g id="axes_1">
   <g id="patch_2">
    <path d="M 90 315 
L 648 315 
L 648 43.2 
L 90 43.2 
z
" style="fill:#ffffff;"/>
   </g>
   <g id="matplotlib.axis_1">
    <g id="xtick_1">
     <g id="line2d_1">
      <path clip-path="url(#p71a0d99251)" d="M 115.363636 315 
L 115.363636 43.2 
" style="fill:none;stroke:#b0b0b0;stroke-linecap:square;stroke-width:0.8;"/>
     </g>
     <g id="line2d_2">
      <defs>
       <path d="M 0 0 
L 0 3.5 
" id="m6bf7e5d139" style="stroke:#000000;stroke-width:0.8;"/>
      </defs>
      <g>
       <use style="stroke:#000000;stroke-width:0.8;" x="115.363636" xlink:href="#m6bf7e5d139" y="315"/>
      </g>
     </g>
     <g id="text_1">
      <!-- 0.0 -->
      <defs>
       <path d="M 31.78125 66.40625 
Q 24.171875 66.40625 20.328125 58.90625 
Q 16.5 51.421875 16.5 36.375 
Q 16.5 21.390625 20.328125 13.890625 
Q 24.171875 6.390625 31.78125 6.390625 
Q 39.453125 6.390625 43.28125 13.890625 
Q 47.125 21.390625 47.125 36.375 
Q 47.125 51.421875 43.28125 58.90625 
Q 39.453125 66.40625 31.78125 66.40625 
z
M 31.78125 74.21875 
Q 44.046875 74.21875 50.515625 64.515625 
Q 56.984375 54.828125 56.984375 36.375 
Q 56.984375 17.96875 50.515625 8.265625 
Q 44.046875 -1.421875 31.78125 -1.421875 
Q 19.53125 -1.421875 13.0625 8.265625 
Q 6.59375 17.96875 6.59375 36.375 
Q 6.59375 54.828125 13.0625 64.515625 
Q 19.53125 74.21875 31.78125 74.21875 
z
" id="DejaVuSans-48"/>
       <path d="M 10.6875 12.40625 
L 21 12.40625 
L 21 0 
L 10.6875 0 
z
" id="DejaVuSans-46"/>
      </defs>
      <g transform="translate(107.412074 329.598437)scale(0.1 -0.1)">
       <use xlink:href="#DejaVuSans-48"/>
       <use x="63.623047" xlink:href="#DejaVuSans-46"/>
       <use x="95.410156" xlink:href="#DejaVuSans-48"/>
      </g>
     </g>
    </g>
    <g id="xtick_2">
     <g id="line2d_3">
      <path clip-path="url(#p71a0d99251)" d="M 199.909091 315 
L 199.909091 43.2 
" style="fill:none;stroke:#b0b0b0;stroke-linecap:square;stroke-width:0.8;"/>
     </g>
     <g id="line2d_4">
      <g>
       <use style="stroke:#000000;stroke-width:0.8;" x="199.909091" xlink:href="#m6bf7e5d139" y="315"/>
      </g>
     </g>
     <g id="text_2">
      <!-- 0.5 -->
      <defs>
       <path d="M 10.796875 72.90625 
L 49.515625 72.90625 
L 49.515625 64.59375 
L 19.828125 64.59375 
L 19.828125 46.734375 
Q 21.96875 47.46875 24.109375 47.828125 
Q 26.265625 48.1875 28.421875 48.1875 
Q 40.625 48.1875 47.75 41.5 
Q 54.890625 34.8125 54.890625 23.390625 
Q 54.890625 11.625 47.5625 5.09375 
Q 40.234375 -1.421875 26.90625 -1.421875 
Q 22.3125 -1.421875 17.546875 -0.640625 
Q 12.796875 0.140625 7.71875 1.703125 
L 7.71875 11.625 
Q 12.109375 9.234375 16.796875 8.0625 
Q 21.484375 6.890625 26.703125 6.890625 
Q 35.15625 6.890625 40.078125 11.328125 
Q 45.015625 15.765625 45.015625 23.390625 
Q 45.015625 31 40.078125 35.4375 
Q 35.15625 39.890625 26.703125 39.890625 
Q 22.75 39.890625 18.8125 39.015625 
Q 14.890625 38.140625 10.796875 36.28125 
z
" id="DejaVuSans-53"/>
      </defs>
      <g transform="translate(191.957528 329.598437)scale(0.1 -0.1)">
       <use xlink:href="#DejaVuSans-48"/>
       <use x="63.623047" xlink:href="#DejaVuSans-46"/>
       <use x="95.410156" xlink:href="#DejaVuSans-53"/>
      </g>
     </g>
    </g>
    <g id="xtick_3">
     <g id="line2d_5">
      <path clip-path="url(#p71a0d99251)" d="M 284.454545 315 
L 284.454545 43.2 
" style="fill:none;stroke:#b0b0b0;stroke-linecap:square;stroke-width:0.8;"/>
     </g>
     <g id="line2d_6">
      <g>
       <use style="stroke:#000000;stroke-width:0.8;" x="284.454545" xlink:href="#m6bf7e5d139" y="315"/>
      </g>
     </g>
     <g id="text_3">
      <!-- 1.0 -->
      <defs>
       <path d="M 12.40625 8.296875 
L 28.515625 8.296875 
L 28.515625 63.921875 
L 10.984375 60.40625 
L 10.984375 69.390625 
L 28.421875 72.90625 
L 38.28125 72.90625 
L 38.28125 8.296875 
L 54.390625 8.296875 
L 54.390625 0 
L 12.40625 0 
z
" id="DejaVuSans-49"/>
      </defs>
      <g transform="translate(276.502983 329.598437)scale(0.1 -0.1)">
       <use xlink:href="#DejaVuSans-49"/>
       <use x="63.623047" xlink:href="#DejaVuSans-46"/>
       <use x="95.410156" xlink:href="#DejaVuSans-48"/>
      </g>
     </g>
    </g>
    <g id="xtick_4">
     <g id="line2d_7">
      <path clip-path="url(#p71a0d99251)" d="M 369 315 
L 369 43.2 
" style="fill:none;stroke:#b0b0b0;stroke-linecap:square;stroke-width:0.8;"/>
     </g>
     <g id="line2d_8">
      <g>
       <use style="stroke:#000000;stroke-width:0.8;" x="369" xlink:href="#m6bf7e5d139" y="315"/>
      </g>
     </g>
     <g id="text_4">
      <!-- 1.5 -->
      <g transform="translate(361.048438 329.598437)scale(0.1 -0.1)">
       <use xlink:href="#DejaVuSans-49"/>
       <use x="63.623047" xlink:href="#DejaVuSans-46"/>
       <use x="95.410156" xlink:href="#DejaVuSans-53"/>
      </g>
     </g>
    </g>
    <g id="xtick_5">
     <g id="line2d_9">
      <path clip-path="url(#p71a0d99251)" d="M 453.545455 315 
L 453.545455 43.2 
" style="fill:none;stroke:#b0b0b0;stroke-linecap:square;stroke-width:0.8;"/>
     </g>
     <g id="line2d_10">
      <g>
       <use style="stroke:#000000;stroke-width:0.8;" x="453.545455" xlink:href="#m6bf7e5d139" y="315"/>
      </g>
     </g>
     <g id="text_5">
      <!-- 2.0 -->
      <defs>
       <path d="M 19.1875 8.296875 
L 53.609375 8.296875 
L 53.609375 0 
L 7.328125 0 
L 7.328125 8.296875 
Q 12.9375 14.109375 22.625 23.890625 
Q 32.328125 33.6875 34.8125 36.53125 
Q 39.546875 41.84375 41.421875 45.53125 
Q 43.3125 49.21875 43.3125 52.78125 
Q 43.3125 58.59375 39.234375 62.25 
Q 35.15625 65.921875 28.609375 65.921875 
Q 23.96875 65.921875 18.8125 64.3125 
Q 13.671875 62.703125 7.8125 59.421875 
L 7.8125 69.390625 
Q 13.765625 71.78125 18.9375 73 
Q 24.125 74.21875 28.421875 74.21875 
Q 39.75 74.21875 46.484375 68.546875 
Q 53.21875 62.890625 53.21875 53.421875 
Q 53.21875 48.921875 51.53125 44.890625 
Q 49.859375 40.875 45.40625 35.40625 
Q 44.1875 33.984375 37.640625 27.21875 
Q 31.109375 20.453125 19.1875 8.296875 
z
" id="DejaVuSans-50"/>
      </defs>
      <g transform="translate(445.593892 329.598437)scale(0.1 -0.1)">
       <use xlink:href="#DejaVuSans-50"/>
       <use x="63.623047" xlink:href="#DejaVuSans-46"/>
       <use x="95.410156" xlink:href="#DejaVuSans-48"/>
      </g>
     </g>
    </g>
    <g id="xtick_6">
     <g id="line2d_11">
      <path clip-path="url(#p71a0d99251)" d="M 538.090909 315 
L 538.090909 43.2 
" style="fill:none;stroke:#b0b0b0;stroke-linecap:square;stroke-width:0.8;"/>
     </g>
     <g id="line2d_12">
      <g>
       <use style="stroke:#000000;stroke-width:0.8;" x="538.090909" xlink:href="#m6bf7e5d139" y="315"/>
      </g>
     </g>
     <g id="text_6">
      <!-- 2.5 -->
      <g transform="translate(530.139347 329.598437)scale(0.1 -0.1)">
       <use xlink:href="#DejaVuSans-50"/>
       <use x="63.623047" xlink:href="#DejaVuSans-46"/>
       <use x="95.410156" xlink:href="#DejaVuSans-53"/>
      </g>
     </g>
    </g>
    <g id="xtick_7">
     <g id="line2d_13">
      <path clip-path="url(#p71a0d99251)" d="M 622.636364 315 
L 622.636364 43.2 
" style="fill:none;stroke:#b0b0b0;stroke-linecap:square;stroke-width:0.8;"/>
     </g>
     <g id="line2d_14">
      <g>
       <use style="stroke:#000000;stroke-width:0.8;" x="622.636364" xlink:href="#m6bf7e5d139" y="315"/>
      </g>
     </g>
     <g id="text_7">
      <!-- 3.0 -->
      <defs>
       <path d="M 40.578125 39.3125 
Q 47.65625 37.796875 51.625 33 
Q 55.609375 28.21875 55.609375 21.1875 
Q 55.609375 10.40625 48.1875 4.484375 
Q 40.765625 -1.421875 27.09375 -1.421875 
Q 22.515625 -1.421875 17.65625 -0.515625 
Q 12.796875 0.390625 7.625 2.203125 
L 7.625 11.71875 
Q 11.71875 9.328125 16.59375 8.109375 
Q 21.484375 6.890625 26.8125 6.890625 
Q 36.078125 6.890625 40.9375 10.546875 
Q 45.796875 14.203125 45.796875 21.1875 
Q 45.796875 27.640625 41.28125 31.265625 
Q 36.765625 34.90625 28.71875 34.90625 
L 20.21875 34.90625 
L 20.21875 43.015625 
L 29.109375 43.015625 
Q 36.375 43.015625 40.234375 45.921875 
Q 44.09375 48.828125 44.09375 54.296875 
Q 44.09375 59.90625 40.109375 62.90625 
Q 36.140625 65.921875 28.71875 65.921875 
Q 24.65625 65.921875 20.015625 65.03125 
Q 15.375 64.15625 9.8125 62.3125 
L 9.8125 71.09375 
Q 15.4375 72.65625 20.34375 73.4375 
Q 25.25 74.21875 29.59375 74.21875 
Q 40.828125 74.21875 47.359375 69.109375 
Q 53.90625 64.015625 53.90625 55.328125 
Q 53.90625 49.265625 50.4375 45.09375 
Q 46.96875 40.921875 40.578125 39.3125 
z
" id="DejaVuSans-51"/>
      </defs>
      <g transform="translate(614.684801 329.598437)scale(0.1 -0.1)">
       <use xlink:href="#DejaVuSans-51"/>
       <use x="63.623047" xlink:href="#DejaVuSans-46"/>
       <use x="95.410156" xlink:href="#DejaVuSans-48"/>
      </g>
     </g>
    </g>
   </g>
   <g id="matplotlib.axis_2">
    <g id="ytick_1">
     <g id="line2d_15">
      <path clip-path="url(#p71a0d99251)" d="M 90 284.291109 
L 648 284.291109 
" style="fill:none;stroke:#b0b0b0;stroke-linecap:square;stroke-width:0.8;"/>
     </g>
     <g id="line2d_16">
      <defs>
       <path d="M 0 0 
L -3.5 0 
" id="mb47ae8d3cd" style="stroke:#000000;stroke-width:0.8;"/>
      </defs>
      <g>
       <use style="stroke:#000000;stroke-width:0.8;" x="90" xlink:href="#mb47ae8d3cd" y="284.291109"/>
      </g>
     </g>
     <g id="text_8">
      <!-- −0.2 -->
      <defs>
       <path d="M 10.59375 35.5 
L 73.1875 35.5 
L 73.1875 27.203125 
L 10.59375 27.203125 
z
" id="DejaVuSans-8722"/>
      </defs>
      <g transform="translate(58.717187 288.090327)scale(0.1 -0.1)">
       <use xlink:href="#DejaVuSans-8722"/>
       <use x="83.789062" xlink:href="#DejaVuSans-48"/>
       <use x="147.412109" xlink:href="#DejaVuSans-46"/>
       <use x="179.199219" xlink:href="#DejaVuSans-50"/>
      </g>
     </g>
    </g>
    <g id="ytick_2">
     <g id="line2d_17">
      <path clip-path="url(#p71a0d99251)" d="M 90 246.168348 
L 648 246.168348 
" style="fill:none;stroke:#b0b0b0;stroke-linecap:square;stroke-width:0.8;"/>
     </g>
     <g id="line2d_18">
      <g>
       <use style="stroke:#000000;stroke-width:0.8;" x="90" xlink:href="#mb47ae8d3cd" y="246.168348"/>
      </g>
     </g>
     <g id="text_9">
      <!-- 0.0 -->
      <g transform="translate(67.096875 249.967567)scale(0.1 -0.1)">
       <use xlink:href="#DejaVuSans-48"/>
       <use x="63.623047" xlink:href="#DejaVuSans-46"/>
       <use x="95.410156" xlink:href="#DejaVuSans-48"/>
      </g>
     </g>
    </g>
    <g id="ytick_3">
     <g id="line2d_19">
      <path clip-path="url(#p71a0d99251)" d="M 90 208.045588 
L 648 208.045588 
" style="fill:none;stroke:#b0b0b0;stroke-linecap:square;stroke-width:0.8;"/>
     </g>
     <g id="line2d_20">
      <g>
       <use style="stroke:#000000;stroke-width:0.8;" x="90" xlink:href="#mb47ae8d3cd" y="208.045588"/>
      </g>
     </g>
     <g id="text_10">
      <!-- 0.2 -->
      <g transform="translate(67.096875 211.844806)scale(0.1 -0.1)">
       <use xlink:href="#DejaVuSans-48"/>
       <use x="63.623047" xlink:href="#DejaVuSans-46"/>
       <use x="95.410156" xlink:href="#DejaVuSans-50"/>
      </g>
     </g>
    </g>
    <g id="ytick_4">
     <g id="line2d_21">
      <path clip-path="url(#p71a0d99251)" d="M 90 169.922827 
L 648 169.922827 
" style="fill:none;stroke:#b0b0b0;stroke-linecap:square;stroke-width:0.8;"/>
     </g>
     <g id="line2d_22">
      <g>
       <use style="stroke:#000000;stroke-width:0.8;" x="90" xlink:href="#mb47ae8d3cd" y="169.922827"/>
      </g>
     </g>
     <g id="text_11">
      <!-- 0.4 -->
      <defs>
       <path d="M 37.796875 64.3125 
L 12.890625 25.390625 
L 37.796875 25.390625 
z
M 35.203125 72.90625 
L 47.609375 72.90625 
L 47.609375 25.390625 
L 58.015625 25.390625 
L 58.015625 17.1875 
L 47.609375 17.1875 
L 47.609375 0 
L 37.796875 0 
L 37.796875 17.1875 
L 4.890625 17.1875 
L 4.890625 26.703125 
z
" id="DejaVuSans-52"/>
      </defs>
      <g transform="translate(67.096875 173.722046)scale(0.1 -0.1)">
       <use xlink:href="#DejaVuSans-48"/>
       <use x="63.623047" xlink:href="#DejaVuSans-46"/>
       <use x="95.410156" xlink:href="#DejaVuSans-52"/>
      </g>
     </g>
    </g>
    <g id="ytick_5">
     <g id="line2d_23">
      <path clip-path="url(#p71a0d99251)" d="M 90 131.800066 
L 648 131.800066 
" style="fill:none;stroke:#b0b0b0;stroke-linecap:square;stroke-width:0.8;"/>
     </g>
     <g id="line2d_24">
      <g>
       <use style="stroke:#000000;stroke-width:0.8;" x="90" xlink:href="#mb47ae8d3cd" y="131.800066"/>
      </g>
     </g>
     <g id="text_12">
      <!-- 0.6 -->
      <defs>
       <path d="M 33.015625 40.375 
Q 26.375 40.375 22.484375 35.828125 
Q 18.609375 31.296875 18.609375 23.390625 
Q 18.609375 15.53125 22.484375 10.953125 
Q 26.375 6.390625 33.015625 6.390625 
Q 39.65625 6.390625 43.53125 10.953125 
Q 47.40625 15.53125 47.40625 23.390625 
Q 47.40625 31.296875 43.53125 35.828125 
Q 39.65625 40.375 33.015625 40.375 
z
M 52.59375 71.296875 
L 52.59375 62.3125 
Q 48.875 64.0625 45.09375 64.984375 
Q 41.3125 65.921875 37.59375 65.921875 
Q 27.828125 65.921875 22.671875 59.328125 
Q 17.53125 52.734375 16.796875 39.40625 
Q 19.671875 43.65625 24.015625 45.921875 
Q 28.375 48.1875 33.59375 48.1875 
Q 44.578125 48.1875 50.953125 41.515625 
Q 57.328125 34.859375 57.328125 23.390625 
Q 57.328125 12.15625 50.6875 5.359375 
Q 44.046875 -1.421875 33.015625 -1.421875 
Q 20.359375 -1.421875 13.671875 8.265625 
Q 6.984375 17.96875 6.984375 36.375 
Q 6.984375 53.65625 15.1875 63.9375 
Q 23.390625 74.21875 37.203125 74.21875 
Q 40.921875 74.21875 44.703125 73.484375 
Q 48.484375 72.75 52.59375 71.296875 
z
" id="DejaVuSans-54"/>
      </defs>
      <g transform="translate(67.096875 135.599285)scale(0.1 -0.1)">
       <use xlink:href="#DejaVuSans-48"/>
       <use x="63.623047" xlink:href="#DejaVuSans-46"/>
       <use x="95.410156" xlink:href="#DejaVuSans-54"/>
      </g>
     </g>
    </g>
    <g id="ytick_6">
     <g id="line2d_25">
      <path clip-path="url(#p71a0d99251)" d="M 90 93.677306 
L 648 93.677306 
" style="fill:none;stroke:#b0b0b0;stroke-linecap:square;stroke-width:0.8;"/>
     </g>
     <g id="line2d_26">
      <g>
       <use style="stroke:#000000;stroke-width:0.8;" x="90" xlink:href="#mb47ae8d3cd" y="93.677306"/>
      </g>
     </g>
     <g id="text_13">
      <!-- 0.8 -->
      <defs>
       <path d="M 31.78125 34.625 
Q 24.75 34.625 20.71875 30.859375 
Q 16.703125 27.09375 16.703125 20.515625 
Q 16.703125 13.921875 20.71875 10.15625 
Q 24.75 6.390625 31.78125 6.390625 
Q 38.8125 6.390625 42.859375 10.171875 
Q 46.921875 13.96875 46.921875 20.515625 
Q 46.921875 27.09375 42.890625 30.859375 
Q 38.875 34.625 31.78125 34.625 
z
M 21.921875 38.8125 
Q 15.578125 40.375 12.03125 44.71875 
Q 8.5 49.078125 8.5 55.328125 
Q 8.5 64.0625 14.71875 69.140625 
Q 20.953125 74.21875 31.78125 74.21875 
Q 42.671875 74.21875 48.875 69.140625 
Q 55.078125 64.0625 55.078125 55.328125 
Q 55.078125 49.078125 51.53125 44.71875 
Q 48 40.375 41.703125 38.8125 
Q 48.828125 37.15625 52.796875 32.3125 
Q 56.78125 27.484375 56.78125 20.515625 
Q 56.78125 9.90625 50.3125 4.234375 
Q 43.84375 -1.421875 31.78125 -1.421875 
Q 19.734375 -1.421875 13.25 4.234375 
Q 6.78125 9.90625 6.78125 20.515625 
Q 6.78125 27.484375 10.78125 32.3125 
Q 14.796875 37.15625 21.921875 38.8125 
z
M 18.3125 54.390625 
Q 18.3125 48.734375 21.84375 45.5625 
Q 25.390625 42.390625 31.78125 42.390625 
Q 38.140625 42.390625 41.71875 45.5625 
Q 45.3125 48.734375 45.3125 54.390625 
Q 45.3125 60.0625 41.71875 63.234375 
Q 38.140625 66.40625 31.78125 66.40625 
Q 25.390625 66.40625 21.84375 63.234375 
Q 18.3125 60.0625 18.3125 54.390625 
z
" id="DejaVuSans-56"/>
      </defs>
      <g transform="translate(67.096875 97.476525)scale(0.1 -0.1)">
       <use xlink:href="#DejaVuSans-48"/>
       <use x="63.623047" xlink:href="#DejaVuSans-46"/>
       <use x="95.410156" xlink:href="#DejaVuSans-56"/>
      </g>
     </g>
    </g>
    <g id="ytick_7">
     <g id="line2d_27">
      <path clip-path="url(#p71a0d99251)" d="M 90 55.554545 
L 648 55.554545 
" style="fill:none;stroke:#b0b0b0;stroke-linecap:square;stroke-width:0.8;"/>
     </g>
     <g id="line2d_28">
      <g>
       <use style="stroke:#000000;stroke-width:0.8;" x="90" xlink:href="#mb47ae8d3cd" y="55.554545"/>
      </g>
     </g>
     <g id="text_14">
      <!-- 1.0 -->
      <g transform="translate(67.096875 59.353764)scale(0.1 -0.1)">
       <use xlink:href="#DejaVuSans-49"/>
       <use x="63.623047" xlink:href="#DejaVuSans-46"/>
       <use x="95.410156" xlink:href="#DejaVuSans-48"/>
      </g>
     </g>
    </g>
   </g>
   <g id="line2d_29">
    <path clip-path="url(#p71a0d99251)" d="M 115.363636 246.168348 
L 120.436364 246.04097 
L 125.509091 245.663984 
L 130.581818 245.045109 
L 135.654545 244.192064 
L 140.727273 243.11257 
L 145.8 241.814348 
L 150.872727 240.305115 
L 155.945455 238.592593 
L 161.018182 236.684501 
L 166.090909 234.58856 
L 172.854545 231.515103 
L 179.618182 228.139713 
L 186.381818 224.480691 
L 193.145455 220.556334 
L 199.909091 216.384941 
L 206.672727 211.984812 
L 215.127273 206.190868 
L 223.581818 200.103854 
L 232.036364 193.759512 
L 242.181818 185.85695 
L 254.018182 176.316395 
L 267.545455 165.109828 
L 292.909091 143.719386 
L 311.509091 128.182979 
L 323.345455 118.560365 
L 333.490909 110.565165 
L 343.636364 102.868465 
L 352.090909 96.727127 
L 360.545455 90.871709 
L 367.309091 86.417255 
L 374.072727 82.186963 
L 380.836364 78.199132 
L 387.6 74.47206 
L 394.363636 71.024047 
L 401.127273 67.873391 
L 407.890909 65.038392 
L 412.963636 63.1303 
L 418.036364 61.417778 
L 423.109091 59.908546 
L 428.181818 58.610323 
L 433.254545 57.530829 
L 438.327273 56.677785 
L 443.4 56.05891 
L 448.472727 55.681923 
L 453.545455 55.554545 
L 453.545455 55.554545 
" style="fill:none;stroke:#1f77b4;stroke-linecap:square;stroke-width:1.5;"/>
   </g>
   <g id="line2d_30">
    <path clip-path="url(#p71a0d99251)" d="M 115.363636 246.168348 
L 120.436364 246.252838 
L 127.2 246.619007 
L 133.963636 247.258135 
L 140.727273 248.151923 
L 147.490909 249.282072 
L 154.254545 250.630284 
L 161.018182 252.178258 
L 169.472727 254.366266 
L 177.927273 256.802073 
L 186.381818 259.449937 
L 196.527273 262.856968 
L 208.363636 267.070343 
L 225.272727 273.348685 
L 250.636364 282.766198 
L 262.472727 286.926201 
L 272.618182 290.2689 
L 281.072727 292.850049 
L 289.527273 295.207227 
L 297.981818 297.304694 
L 304.745455 298.771658 
L 311.509091 300.031234 
L 318.272727 301.065123 
L 325.036364 301.855027 
L 331.8 302.382646 
L 338.563636 302.629681 
L 343.636364 302.619817 
L 348.709091 302.434111 
L 353.781818 302.064845 
L 358.854545 301.504297 
L 363.927273 300.744749 
L 369 299.77848 
L 374.072727 298.59777 
L 379.145455 297.194901 
L 384.218182 295.56215 
L 389.290909 293.6918 
L 394.363636 291.57613 
L 399.436364 289.20742 
L 404.509091 286.57795 
L 409.581818 283.680001 
L 414.654545 280.505852 
L 419.727273 277.047784 
L 424.8 273.298077 
L 429.872727 269.249011 
L 434.945455 264.892866 
L 440.018182 260.221922 
L 445.090909 255.22846 
L 450.163636 249.90476 
L 453.545455 246.168348 
L 453.545455 246.168348 
" style="fill:none;stroke:#ff7f0e;stroke-linecap:square;stroke-width:1.5;"/>
   </g>
   <g id="line2d_31">
    <path clip-path="url(#p71a0d99251)" d="M 453.545455 55.554545 
L 455.236364 55.611348 
L 456.927273 55.780232 
L 458.618182 56.05891 
L 460.309091 56.445093 
L 462 56.936496 
L 463.690909 57.530829 
L 465.381818 58.225807 
L 467.072727 59.019142 
L 468.763636 59.908546 
L 470.454545 60.891732 
L 472.145455 61.966413 
L 473.836364 63.1303 
L 475.527273 64.381108 
L 477.218182 65.716548 
L 478.909091 67.134334 
L 480.6 68.632177 
L 482.290909 70.207791 
L 483.981818 71.858888 
L 485.672727 73.58318 
L 487.363636 75.378381 
L 489.054545 77.242203 
L 490.745455 79.172358 
L 492.436364 81.16656 
L 494.127273 83.22252 
L 495.818182 85.337952 
L 497.509091 87.510568 
L 499.2 89.738081 
L 500.890909 92.018203 
L 502.581818 94.348648 
L 504.272727 96.727127 
L 505.963636 99.151353 
L 507.654545 101.619039 
L 509.345455 104.127898 
L 511.036364 106.675642 
L 512.727273 109.259984 
L 514.418182 111.878637 
L 516.109091 114.529312 
L 517.8 117.209724 
L 519.490909 119.917583 
L 521.181818 122.650604 
L 522.872727 125.406498 
L 524.563636 128.182979 
L 526.254545 130.977759 
L 527.945455 133.78855 
L 529.636364 136.613065 
L 531.327273 139.449017 
L 533.018182 142.294119 
L 534.709091 145.146082 
L 536.4 148.002621 
L 538.090909 150.861447 
L 539.781818 153.720273 
L 541.472727 156.576811 
L 543.163636 159.428775 
L 544.854545 162.273876 
L 546.545455 165.109828 
L 548.236364 167.934344 
L 549.927273 170.745135 
L 551.618182 173.539915 
L 553.309091 176.316395 
L 555 179.07229 
L 556.690909 181.80531 
L 558.381818 184.51317 
L 560.072727 187.193581 
L 561.763636 189.844257 
L 563.454545 192.462909 
L 565.145455 195.047251 
L 566.836364 197.594995 
L 568.527273 200.103854 
L 570.218182 202.57154 
L 571.909091 204.995767 
L 573.6 207.374246 
L 575.290909 209.70469 
L 576.981818 211.984812 
L 578.672727 214.212325 
L 580.363636 216.384941 
L 582.054545 218.500373 
L 583.745455 220.556334 
L 585.436364 222.550535 
L 587.127273 224.480691 
L 588.818182 226.344513 
L 590.509091 228.139713 
L 592.2 229.864006 
L 593.890909 231.515103 
L 595.581818 233.090716 
L 597.272727 234.58856 
L 598.963636 236.006345 
L 600.654545 237.341785 
L 602.345455 238.592593 
L 604.036364 239.756481 
L 605.727273 240.831162 
L 607.418182 241.814348 
L 609.109091 242.703752 
L 610.8 243.497086 
L 612.490909 244.192064 
L 614.181818 244.786398 
L 615.872727 245.2778 
L 617.563636 245.663984 
L 619.254545 245.942661 
L 620.945455 246.111545 
L 622.636364 246.168348 
" style="fill:none;stroke:#2ca02c;stroke-linecap:square;stroke-width:1.5;"/>
   </g>
   <g id="line2d_32">
    <path clip-path="url(#p71a0d99251)" d="M 453.545455 246.168348 
L 455.236364 244.300142 
L 456.927273 242.507038 
L 458.618182 240.787892 
L 460.309091 239.141561 
L 462 237.5669 
L 463.690909 236.062767 
L 465.381818 234.628017 
L 467.072727 233.261506 
L 468.763636 231.962092 
L 470.454545 230.72863 
L 472.145455 229.559977 
L 473.836364 228.454989 
L 475.527273 227.412522 
L 477.218182 226.431432 
L 478.909091 225.510577 
L 480.6 224.648812 
L 482.290909 223.844994 
L 483.981818 223.097978 
L 485.672727 222.406622 
L 487.363636 221.769781 
L 489.054545 221.186312 
L 490.745455 220.655072 
L 492.436364 220.174916 
L 494.127273 219.7447 
L 495.818182 219.363282 
L 497.509091 219.029517 
L 499.2 218.742262 
L 500.890909 218.500373 
L 502.581818 218.302707 
L 504.272727 218.148119 
L 505.963636 218.035466 
L 507.654545 217.963605 
L 509.345455 217.931391 
L 511.036364 217.937681 
L 512.727273 217.981332 
L 514.418182 218.061199 
L 516.109091 218.176139 
L 517.8 218.325009 
L 519.490909 218.506664 
L 521.181818 218.71996 
L 522.872727 218.963756 
L 524.563636 219.236905 
L 526.254545 219.538266 
L 527.945455 219.866693 
L 529.636364 220.221044 
L 531.327273 220.600175 
L 533.018182 221.002942 
L 534.709091 221.428201 
L 536.4 221.874809 
L 538.090909 222.341623 
L 539.781818 222.827497 
L 541.472727 223.33129 
L 543.163636 223.851856 
L 544.854545 224.388052 
L 546.545455 224.938736 
L 548.236364 225.502762 
L 549.927273 226.078988 
L 551.618182 226.666269 
L 553.309091 227.263462 
L 555 227.869423 
L 556.690909 228.483009 
L 558.381818 229.103076 
L 560.072727 229.728479 
L 561.763636 230.358077 
L 563.454545 230.990724 
L 565.145455 231.625277 
L 566.836364 232.260593 
L 568.527273 232.895528 
L 570.218182 233.528937 
L 571.909091 234.159678 
L 573.6 234.786607 
L 575.290909 235.40858 
L 576.981818 236.024453 
L 578.672727 236.633083 
L 580.363636 237.233326 
L 582.054545 237.824038 
L 583.745455 238.404076 
L 585.436364 238.972296 
L 587.127273 239.527554 
L 588.818182 240.068706 
L 590.509091 240.59461 
L 592.2 241.104121 
L 593.890909 241.596095 
L 595.581818 242.069389 
L 597.272727 242.522859 
L 598.963636 242.955362 
L 600.654545 243.365753 
L 602.345455 243.75289 
L 604.036364 244.115628 
L 605.727273 244.452824 
L 607.418182 244.763334 
L 609.109091 245.046014 
L 610.8 245.299721 
L 612.490909 245.523311 
L 614.181818 245.71564 
L 615.872727 245.875565 
L 617.563636 246.001942 
L 619.254545 246.093627 
L 620.945455 246.149477 
L 622.636364 246.168348 
" style="fill:none;stroke:#d62728;stroke-linecap:square;stroke-width:1.5;"/>
   </g>
   <g id="patch_3">
    <path d="M 90 315 
L 90 43.2 
" style="fill:none;stroke:#000000;stroke-linecap:square;stroke-linejoin:miter;stroke-width:0.8;"/>
   </g>
   <g id="patch_4">
    <path d="M 648 315 
L 648 43.2 
" style="fill:none;stroke:#000000;stroke-linecap:square;stroke-linejoin:miter;stroke-width:0.8;"/>
   </g>
   <g id="patch_5">
    <path d="M 90 315 
L 648 315 
" style="fill:none;stroke:#000000;stroke-linecap:square;stroke-linejoin:miter;stroke-width:0.8;"/>
   </g>
   <g id="patch_6">
    <path d="M 90 43.2 
L 648 43.2 
" style="fill:none;stroke:#000000;stroke-linecap:square;stroke-linejoin:miter;stroke-width:0.8;"/>
   </g>
   <g id="text_15">
    <!-- C1-jatkuvat muotofunktiot (kinemaattisesti käyvät) -->
    <defs>
     <path d="M 64.40625 67.28125 
L 64.40625 56.890625 
Q 59.421875 61.53125 53.78125 63.8125 
Q 48.140625 66.109375 41.796875 66.109375 
Q 29.296875 66.109375 22.65625 58.46875 
Q 16.015625 50.828125 16.015625 36.375 
Q 16.015625 21.96875 22.65625 14.328125 
Q 29.296875 6.6875 41.796875 6.6875 
Q 48.140625 6.6875 53.78125 8.984375 
Q 59.421875 11.28125 64.40625 15.921875 
L 64.40625 5.609375 
Q 59.234375 2.09375 53.4375 0.328125 
Q 47.65625 -1.421875 41.21875 -1.421875 
Q 24.65625 -1.421875 15.125 8.703125 
Q 5.609375 18.84375 5.609375 36.375 
Q 5.609375 53.953125 15.125 64.078125 
Q 24.65625 74.21875 41.21875 74.21875 
Q 47.75 74.21875 53.53125 72.484375 
Q 59.328125 70.75 64.40625 67.28125 
z
" id="DejaVuSans-67"/>
     <path d="M 4.890625 31.390625 
L 31.203125 31.390625 
L 31.203125 23.390625 
L 4.890625 23.390625 
z
" id="DejaVuSans-45"/>
     <path d="M 9.421875 54.6875 
L 18.40625 54.6875 
L 18.40625 -0.984375 
Q 18.40625 -11.421875 14.421875 -16.109375 
Q 10.453125 -20.796875 1.609375 -20.796875 
L -1.8125 -20.796875 
L -1.8125 -13.1875 
L 0.59375 -13.1875 
Q 5.71875 -13.1875 7.5625 -10.8125 
Q 9.421875 -8.453125 9.421875 -0.984375 
z
M 9.421875 75.984375 
L 18.40625 75.984375 
L 18.40625 64.59375 
L 9.421875 64.59375 
z
" id="DejaVuSans-106"/>
     <path d="M 34.28125 27.484375 
Q 23.390625 27.484375 19.1875 25 
Q 14.984375 22.515625 14.984375 16.5 
Q 14.984375 11.71875 18.140625 8.90625 
Q 21.296875 6.109375 26.703125 6.109375 
Q 34.1875 6.109375 38.703125 11.40625 
Q 43.21875 16.703125 43.21875 25.484375 
L 43.21875 27.484375 
z
M 52.203125 31.203125 
L 52.203125 0 
L 43.21875 0 
L 43.21875 8.296875 
Q 40.140625 3.328125 35.546875 0.953125 
Q 30.953125 -1.421875 24.3125 -1.421875 
Q 15.921875 -1.421875 10.953125 3.296875 
Q 6 8.015625 6 15.921875 
Q 6 25.140625 12.171875 29.828125 
Q 18.359375 34.515625 30.609375 34.515625 
L 43.21875 34.515625 
L 43.21875 35.40625 
Q 43.21875 41.609375 39.140625 45 
Q 35.0625 48.390625 27.6875 48.390625 
Q 23 48.390625 18.546875 47.265625 
Q 14.109375 46.140625 10.015625 43.890625 
L 10.015625 52.203125 
Q 14.9375 54.109375 19.578125 55.046875 
Q 24.21875 56 28.609375 56 
Q 40.484375 56 46.34375 49.84375 
Q 52.203125 43.703125 52.203125 31.203125 
z
" id="DejaVuSans-97"/>
     <path d="M 18.3125 70.21875 
L 18.3125 54.6875 
L 36.8125 54.6875 
L 36.8125 47.703125 
L 18.3125 47.703125 
L 18.3125 18.015625 
Q 18.3125 11.328125 20.140625 9.421875 
Q 21.96875 7.515625 27.59375 7.515625 
L 36.8125 7.515625 
L 36.8125 0 
L 27.59375 0 
Q 17.1875 0 13.234375 3.875 
Q 9.28125 7.765625 9.28125 18.015625 
L 9.28125 47.703125 
L 2.6875 47.703125 
L 2.6875 54.6875 
L 9.28125 54.6875 
L 9.28125 70.21875 
z
" id="DejaVuSans-116"/>
     <path d="M 9.078125 75.984375 
L 18.109375 75.984375 
L 18.109375 31.109375 
L 44.921875 54.6875 
L 56.390625 54.6875 
L 27.390625 29.109375 
L 57.625 0 
L 45.90625 0 
L 18.109375 26.703125 
L 18.109375 0 
L 9.078125 0 
z
" id="DejaVuSans-107"/>
     <path d="M 8.5 21.578125 
L 8.5 54.6875 
L 17.484375 54.6875 
L 17.484375 21.921875 
Q 17.484375 14.15625 20.5 10.265625 
Q 23.53125 6.390625 29.59375 6.390625 
Q 36.859375 6.390625 41.078125 11.03125 
Q 45.3125 15.671875 45.3125 23.6875 
L 45.3125 54.6875 
L 54.296875 54.6875 
L 54.296875 0 
L 45.3125 0 
L 45.3125 8.40625 
Q 42.046875 3.421875 37.71875 1 
Q 33.40625 -1.421875 27.6875 -1.421875 
Q 18.265625 -1.421875 13.375 4.4375 
Q 8.5 10.296875 8.5 21.578125 
z
M 31.109375 56 
z
" id="DejaVuSans-117"/>
     <path d="M 2.984375 54.6875 
L 12.5 54.6875 
L 29.59375 8.796875 
L 46.6875 54.6875 
L 56.203125 54.6875 
L 35.6875 0 
L 23.484375 0 
z
" id="DejaVuSans-118"/>
     <path id="DejaVuSans-32"/>
     <path d="M 52 44.1875 
Q 55.375 50.25 60.0625 53.125 
Q 64.75 56 71.09375 56 
Q 79.640625 56 84.28125 50.015625 
Q 88.921875 44.046875 88.921875 33.015625 
L 88.921875 0 
L 79.890625 0 
L 79.890625 32.71875 
Q 79.890625 40.578125 77.09375 44.375 
Q 74.3125 48.1875 68.609375 48.1875 
Q 61.625 48.1875 57.5625 43.546875 
Q 53.515625 38.921875 53.515625 30.90625 
L 53.515625 0 
L 44.484375 0 
L 44.484375 32.71875 
Q 44.484375 40.625 41.703125 44.40625 
Q 38.921875 48.1875 33.109375 48.1875 
Q 26.21875 48.1875 22.15625 43.53125 
Q 18.109375 38.875 18.109375 30.90625 
L 18.109375 0 
L 9.078125 0 
L 9.078125 54.6875 
L 18.109375 54.6875 
L 18.109375 46.1875 
Q 21.1875 51.21875 25.484375 53.609375 
Q 29.78125 56 35.6875 56 
Q 41.65625 56 45.828125 52.96875 
Q 50 49.953125 52 44.1875 
z
" id="DejaVuSans-109"/>
     <path d="M 30.609375 48.390625 
Q 23.390625 48.390625 19.1875 42.75 
Q 14.984375 37.109375 14.984375 27.296875 
Q 14.984375 17.484375 19.15625 11.84375 
Q 23.34375 6.203125 30.609375 6.203125 
Q 37.796875 6.203125 41.984375 11.859375 
Q 46.1875 17.53125 46.1875 27.296875 
Q 46.1875 37.015625 41.984375 42.703125 
Q 37.796875 48.390625 30.609375 48.390625 
z
M 30.609375 56 
Q 42.328125 56 49.015625 48.375 
Q 55.71875 40.765625 55.71875 27.296875 
Q 55.71875 13.875 49.015625 6.21875 
Q 42.328125 -1.421875 30.609375 -1.421875 
Q 18.84375 -1.421875 12.171875 6.21875 
Q 5.515625 13.875 5.515625 27.296875 
Q 5.515625 40.765625 12.171875 48.375 
Q 18.84375 56 30.609375 56 
z
" id="DejaVuSans-111"/>
     <path d="M 37.109375 75.984375 
L 37.109375 68.5 
L 28.515625 68.5 
Q 23.6875 68.5 21.796875 66.546875 
Q 19.921875 64.59375 19.921875 59.515625 
L 19.921875 54.6875 
L 34.71875 54.6875 
L 34.71875 47.703125 
L 19.921875 47.703125 
L 19.921875 0 
L 10.890625 0 
L 10.890625 47.703125 
L 2.296875 47.703125 
L 2.296875 54.6875 
L 10.890625 54.6875 
L 10.890625 58.5 
Q 10.890625 67.625 15.140625 71.796875 
Q 19.390625 75.984375 28.609375 75.984375 
z
" id="DejaVuSans-102"/>
     <path d="M 54.890625 33.015625 
L 54.890625 0 
L 45.90625 0 
L 45.90625 32.71875 
Q 45.90625 40.484375 42.875 44.328125 
Q 39.84375 48.1875 33.796875 48.1875 
Q 26.515625 48.1875 22.3125 43.546875 
Q 18.109375 38.921875 18.109375 30.90625 
L 18.109375 0 
L 9.078125 0 
L 9.078125 54.6875 
L 18.109375 54.6875 
L 18.109375 46.1875 
Q 21.34375 51.125 25.703125 53.5625 
Q 30.078125 56 35.796875 56 
Q 45.21875 56 50.046875 50.171875 
Q 54.890625 44.34375 54.890625 33.015625 
z
" id="DejaVuSans-110"/>
     <path d="M 9.421875 54.6875 
L 18.40625 54.6875 
L 18.40625 0 
L 9.421875 0 
z
M 9.421875 75.984375 
L 18.40625 75.984375 
L 18.40625 64.59375 
L 9.421875 64.59375 
z
" id="DejaVuSans-105"/>
     <path d="M 31 75.875 
Q 24.46875 64.65625 21.28125 53.65625 
Q 18.109375 42.671875 18.109375 31.390625 
Q 18.109375 20.125 21.3125 9.0625 
Q 24.515625 -2 31 -13.1875 
L 23.1875 -13.1875 
Q 15.875 -1.703125 12.234375 9.375 
Q 8.59375 20.453125 8.59375 31.390625 
Q 8.59375 42.28125 12.203125 53.3125 
Q 15.828125 64.359375 23.1875 75.875 
z
" id="DejaVuSans-40"/>
     <path d="M 56.203125 29.59375 
L 56.203125 25.203125 
L 14.890625 25.203125 
Q 15.484375 15.921875 20.484375 11.0625 
Q 25.484375 6.203125 34.421875 6.203125 
Q 39.59375 6.203125 44.453125 7.46875 
Q 49.3125 8.734375 54.109375 11.28125 
L 54.109375 2.78125 
Q 49.265625 0.734375 44.1875 -0.34375 
Q 39.109375 -1.421875 33.890625 -1.421875 
Q 20.796875 -1.421875 13.15625 6.1875 
Q 5.515625 13.8125 5.515625 26.8125 
Q 5.515625 40.234375 12.765625 48.109375 
Q 20.015625 56 32.328125 56 
Q 43.359375 56 49.78125 48.890625 
Q 56.203125 41.796875 56.203125 29.59375 
z
M 47.21875 32.234375 
Q 47.125 39.59375 43.09375 43.984375 
Q 39.0625 48.390625 32.421875 48.390625 
Q 24.90625 48.390625 20.390625 44.140625 
Q 15.875 39.890625 15.1875 32.171875 
z
" id="DejaVuSans-101"/>
     <path d="M 44.28125 53.078125 
L 44.28125 44.578125 
Q 40.484375 46.53125 36.375 47.5 
Q 32.28125 48.484375 27.875 48.484375 
Q 21.1875 48.484375 17.84375 46.4375 
Q 14.5 44.390625 14.5 40.28125 
Q 14.5 37.15625 16.890625 35.375 
Q 19.28125 33.59375 26.515625 31.984375 
L 29.59375 31.296875 
Q 39.15625 29.25 43.1875 25.515625 
Q 47.21875 21.78125 47.21875 15.09375 
Q 47.21875 7.46875 41.1875 3.015625 
Q 35.15625 -1.421875 24.609375 -1.421875 
Q 20.21875 -1.421875 15.453125 -0.5625 
Q 10.6875 0.296875 5.421875 2 
L 5.421875 11.28125 
Q 10.40625 8.6875 15.234375 7.390625 
Q 20.0625 6.109375 24.8125 6.109375 
Q 31.15625 6.109375 34.5625 8.28125 
Q 37.984375 10.453125 37.984375 14.40625 
Q 37.984375 18.0625 35.515625 20.015625 
Q 33.0625 21.96875 24.703125 23.78125 
L 21.578125 24.515625 
Q 13.234375 26.265625 9.515625 29.90625 
Q 5.8125 33.546875 5.8125 39.890625 
Q 5.8125 47.609375 11.28125 51.796875 
Q 16.75 56 26.8125 56 
Q 31.78125 56 36.171875 55.265625 
Q 40.578125 54.546875 44.28125 53.078125 
z
" id="DejaVuSans-115"/>
     <path d="M 34.28125 27.484375 
Q 23.390625 27.484375 19.1875 25 
Q 14.984375 22.515625 14.984375 16.5 
Q 14.984375 11.71875 18.140625 8.90625 
Q 21.296875 6.109375 26.703125 6.109375 
Q 34.1875 6.109375 38.703125 11.40625 
Q 43.21875 16.703125 43.21875 25.484375 
L 43.21875 27.484375 
z
M 52.203125 31.203125 
L 52.203125 0 
L 43.21875 0 
L 43.21875 8.296875 
Q 40.140625 3.328125 35.546875 0.953125 
Q 30.953125 -1.421875 24.3125 -1.421875 
Q 15.921875 -1.421875 10.953125 3.296875 
Q 6 8.015625 6 15.921875 
Q 6 25.140625 12.171875 29.828125 
Q 18.359375 34.515625 30.609375 34.515625 
L 43.21875 34.515625 
L 43.21875 35.40625 
Q 43.21875 41.609375 39.140625 45 
Q 35.0625 48.390625 27.6875 48.390625 
Q 23 48.390625 18.546875 47.265625 
Q 14.109375 46.140625 10.015625 43.890625 
L 10.015625 52.203125 
Q 14.9375 54.109375 19.578125 55.046875 
Q 24.21875 56 28.609375 56 
Q 40.484375 56 46.34375 49.84375 
Q 52.203125 43.703125 52.203125 31.203125 
z
M 33.59375 75.78125 
L 43.5 75.78125 
L 43.5 65.921875 
L 33.59375 65.921875 
z
M 14.5 75.78125 
L 24.421875 75.78125 
L 24.421875 65.921875 
L 14.5 65.921875 
z
" id="DejaVuSans-228"/>
     <path d="M 32.171875 -5.078125 
Q 28.375 -14.84375 24.75 -17.8125 
Q 21.140625 -20.796875 15.09375 -20.796875 
L 7.90625 -20.796875 
L 7.90625 -13.28125 
L 13.1875 -13.28125 
Q 16.890625 -13.28125 18.9375 -11.515625 
Q 21 -9.765625 23.484375 -3.21875 
L 25.09375 0.875 
L 2.984375 54.6875 
L 12.5 54.6875 
L 29.59375 11.921875 
L 46.6875 54.6875 
L 56.203125 54.6875 
z
" id="DejaVuSans-121"/>
     <path d="M 8.015625 75.875 
L 15.828125 75.875 
Q 23.140625 64.359375 26.78125 53.3125 
Q 30.421875 42.28125 30.421875 31.390625 
Q 30.421875 20.453125 26.78125 9.375 
Q 23.140625 -1.703125 15.828125 -13.1875 
L 8.015625 -13.1875 
Q 14.5 -2 17.703125 9.0625 
Q 20.90625 20.125 20.90625 31.390625 
Q 20.90625 42.671875 17.703125 53.65625 
Q 14.5 64.65625 8.015625 75.875 
z
" id="DejaVuSans-41"/>
    </defs>
    <g transform="translate(112.565625 37.2)scale(0.2 -0.2)">
     <use xlink:href="#DejaVuSans-67"/>
     <use x="69.824219" xlink:href="#DejaVuSans-49"/>
     <use x="133.447266" xlink:href="#DejaVuSans-45"/>
     <use x="169.53125" xlink:href="#DejaVuSans-106"/>
     <use x="197.314453" xlink:href="#DejaVuSans-97"/>
     <use x="258.59375" xlink:href="#DejaVuSans-116"/>
     <use x="297.802734" xlink:href="#DejaVuSans-107"/>
     <use x="352.587891" xlink:href="#DejaVuSans-117"/>
     <use x="415.966797" xlink:href="#DejaVuSans-118"/>
     <use x="475.146484" xlink:href="#DejaVuSans-97"/>
     <use x="536.425781" xlink:href="#DejaVuSans-116"/>
     <use x="575.634766" xlink:href="#DejaVuSans-32"/>
     <use x="607.421875" xlink:href="#DejaVuSans-109"/>
     <use x="704.833984" xlink:href="#DejaVuSans-117"/>
     <use x="768.212891" xlink:href="#DejaVuSans-111"/>
     <use x="829.394531" xlink:href="#DejaVuSans-116"/>
     <use x="868.603516" xlink:href="#DejaVuSans-111"/>
     <use x="929.785156" xlink:href="#DejaVuSans-102"/>
     <use x="964.990234" xlink:href="#DejaVuSans-117"/>
     <use x="1028.369141" xlink:href="#DejaVuSans-110"/>
     <use x="1091.748047" xlink:href="#DejaVuSans-107"/>
     <use x="1149.658203" xlink:href="#DejaVuSans-116"/>
     <use x="1188.867188" xlink:href="#DejaVuSans-105"/>
     <use x="1216.650391" xlink:href="#DejaVuSans-111"/>
     <use x="1277.832031" xlink:href="#DejaVuSans-116"/>
     <use x="1317.041016" xlink:href="#DejaVuSans-32"/>
     <use x="1348.828125" xlink:href="#DejaVuSans-40"/>
     <use x="1387.841797" xlink:href="#DejaVuSans-107"/>
     <use x="1445.751953" xlink:href="#DejaVuSans-105"/>
     <use x="1473.535156" xlink:href="#DejaVuSans-110"/>
     <use x="1536.914062" xlink:href="#DejaVuSans-101"/>
     <use x="1598.4375" xlink:href="#DejaVuSans-109"/>
     <use x="1695.849609" xlink:href="#DejaVuSans-97"/>
     <use x="1757.128906" xlink:href="#DejaVuSans-97"/>
     <use x="1818.408203" xlink:href="#DejaVuSans-116"/>
     <use x="1857.617188" xlink:href="#DejaVuSans-116"/>
     <use x="1896.826172" xlink:href="#DejaVuSans-105"/>
     <use x="1924.609375" xlink:href="#DejaVuSans-115"/>
     <use x="1976.708984" xlink:href="#DejaVuSans-101"/>
     <use x="2038.232422" xlink:href="#DejaVuSans-115"/>
     <use x="2090.332031" xlink:href="#DejaVuSans-116"/>
     <use x="2129.541016" xlink:href="#DejaVuSans-105"/>
     <use x="2157.324219" xlink:href="#DejaVuSans-32"/>
     <use x="2189.111328" xlink:href="#DejaVuSans-107"/>
     <use x="2245.271484" xlink:href="#DejaVuSans-228"/>
     <use x="2306.550781" xlink:href="#DejaVuSans-121"/>
     <use x="2365.730469" xlink:href="#DejaVuSans-118"/>
     <use x="2424.910156" xlink:href="#DejaVuSans-228"/>
     <use x="2486.189453" xlink:href="#DejaVuSans-116"/>
     <use x="2525.398438" xlink:href="#DejaVuSans-41"/>
    </g>
   </g>
   <g id="legend_1">
    <g id="patch_7">
     <path d="M 577.7 122.3 
L 641 122.3 
Q 643 122.3 643 120.3 
L 643 50.2 
Q 643 48.2 641 48.2 
L 577.7 48.2 
Q 575.7 48.2 575.7 50.2 
L 575.7 120.3 
Q 575.7 122.3 577.7 122.3 
z
" style="fill:#ffffff;opacity:0.8;stroke:#cccccc;stroke-linejoin:miter;"/>
    </g>
    <g id="line2d_33">
     <path d="M 579.7 58.7 
L 599.7 58.7 
" style="fill:none;stroke:#1f77b4;stroke-linecap:square;stroke-width:1.5;"/>
    </g>
    <g id="line2d_34"/>
    <g id="text_16">
     <!-- $\phi_{3}^{\left(1\right)}\left(x\right)$ -->
     <defs>
      <path d="M 46.734375 75.984375 
L 42.78125 55.8125 
Q 52.546875 55.8125 57.5625 48.34375 
Q 62.75 40.71875 60.15625 27.296875 
Q 57.515625 13.875 49.359375 6.25 
Q 41.453125 -1.21875 31.6875 -1.21875 
L 27.875 -20.796875 
L 18.953125 -20.796875 
L 22.75 -1.21875 
Q 13.03125 -1.21875 7.953125 6.25 
Q 2.78125 13.875 5.421875 27.296875 
Q 8.015625 40.71875 16.15625 48.34375 
Q 24.125 55.8125 33.84375 55.8125 
L 37.796875 75.984375 
z
M 33.25 6.78125 
Q 38.765625 6.78125 43.5 11.8125 
Q 48.6875 17.4375 50.6875 27.296875 
Q 52.640625 37.0625 49.515625 42.78125 
Q 46.734375 47.796875 41.21875 47.796875 
z
M 24.3125 6.78125 
L 32.28125 47.796875 
Q 26.8125 47.796875 22.078125 42.78125 
Q 16.75 37.0625 14.890625 27.296875 
Q 13.03125 17.4375 16.0625 11.8125 
Q 18.796875 6.78125 24.3125 6.78125 
z
" id="DejaVuSans-Oblique-981"/>
      <path d="M 60.015625 54.6875 
L 34.90625 27.875 
L 50.296875 0 
L 39.984375 0 
L 28.421875 21.6875 
L 8.296875 0 
L -2.59375 0 
L 24.3125 28.8125 
L 10.015625 54.6875 
L 20.3125 54.6875 
L 30.8125 34.90625 
L 49.125 54.6875 
z
" id="DejaVuSans-Oblique-120"/>
     </defs>
     <g transform="translate(607.7 62.2)scale(0.1 -0.1)">
      <use transform="translate(0 0.546875)" xlink:href="#DejaVuSans-Oblique-981"/>
      <use transform="translate(73.414505 46.8875)scale(0.7)" xlink:href="#DejaVuSans-40"/>
      <use transform="translate(100.724076 46.8875)scale(0.7)" xlink:href="#DejaVuSans-49"/>
      <use transform="translate(145.260208 46.8875)scale(0.7)" xlink:href="#DejaVuSans-41"/>
      <use transform="translate(65.966797 -26.796875)scale(0.7)" xlink:href="#DejaVuSans-51"/>
      <use transform="translate(175.304154 0.546875)" xlink:href="#DejaVuSans-40"/>
      <use transform="translate(214.317826 0.546875)" xlink:href="#DejaVuSans-Oblique-120"/>
      <use transform="translate(273.497513 0.546875)" xlink:href="#DejaVuSans-41"/>
     </g>
    </g>
    <g id="line2d_35">
     <path d="M 579.7 76.5 
L 599.7 76.5 
" style="fill:none;stroke:#ff7f0e;stroke-linecap:square;stroke-width:1.5;"/>
    </g>
    <g id="line2d_36"/>
    <g id="text_17">
     <!-- $\phi_{4}^{\left(1\right)}\left(x\right)$ -->
     <g transform="translate(607.7 80)scale(0.1 -0.1)">
      <use transform="translate(0 0.465625)" xlink:href="#DejaVuSans-Oblique-981"/>
      <use transform="translate(73.414505 45.8875)scale(0.7)" xlink:href="#DejaVuSans-40"/>
      <use transform="translate(100.724076 45.8875)scale(0.7)" xlink:href="#DejaVuSans-49"/>
      <use transform="translate(145.260208 45.8875)scale(0.7)" xlink:href="#DejaVuSans-41"/>
      <use transform="translate(65.966797 -26.878125)scale(0.7)" xlink:href="#DejaVuSans-52"/>
      <use transform="translate(175.304154 0.465625)" xlink:href="#DejaVuSans-40"/>
      <use transform="translate(214.317826 0.465625)" xlink:href="#DejaVuSans-Oblique-120"/>
      <use transform="translate(273.497513 0.465625)" xlink:href="#DejaVuSans-41"/>
     </g>
    </g>
    <g id="line2d_37">
     <path d="M 579.7 94.2 
L 599.7 94.2 
" style="fill:none;stroke:#2ca02c;stroke-linecap:square;stroke-width:1.5;"/>
    </g>
    <g id="line2d_38"/>
    <g id="text_18">
     <!-- $\phi_{1}^{\left(2\right)}\left(x\right)$ -->
     <g transform="translate(607.7 97.7)scale(0.1 -0.1)">
      <use transform="translate(0 0.465625)" xlink:href="#DejaVuSans-Oblique-981"/>
      <use transform="translate(73.414505 45.8875)scale(0.7)" xlink:href="#DejaVuSans-40"/>
      <use transform="translate(100.724076 45.8875)scale(0.7)" xlink:href="#DejaVuSans-50"/>
      <use transform="translate(145.260208 45.8875)scale(0.7)" xlink:href="#DejaVuSans-41"/>
      <use transform="translate(65.966797 -26.878125)scale(0.7)" xlink:href="#DejaVuSans-49"/>
      <use transform="translate(175.304154 0.465625)" xlink:href="#DejaVuSans-40"/>
      <use transform="translate(214.317826 0.465625)" xlink:href="#DejaVuSans-Oblique-120"/>
      <use transform="translate(273.497513 0.465625)" xlink:href="#DejaVuSans-41"/>
     </g>
    </g>
    <g id="line2d_39">
     <path d="M 579.7 112 
L 599.7 112 
" style="fill:none;stroke:#d62728;stroke-linecap:square;stroke-width:1.5;"/>
    </g>
    <g id="line2d_40"/>
    <g id="text_19">
     <!-- $\phi_{2}^{\left(2\right)}\left(x\right)$ -->
     <g transform="translate(607.7 115.5)scale(0.1 -0.1)">
      <use transform="translate(0 0.546875)" xlink:href="#DejaVuSans-Oblique-981"/>
      <use transform="translate(73.414505 46.8875)scale(0.7)" xlink:href="#DejaVuSans-40"/>
      <use transform="translate(100.724076 46.8875)scale(0.7)" xlink:href="#DejaVuSans-50"/>
      <use transform="translate(145.260208 46.8875)scale(0.7)" xlink:href="#DejaVuSans-41"/>
      <use transform="translate(65.966797 -26.796875)scale(0.7)" xlink:href="#DejaVuSans-50"/>
      <use transform="translate(175.304154 0.546875)" xlink:href="#DejaVuSans-40"/>
      <use transform="translate(214.317826 0.546875)" xlink:href="#DejaVuSans-Oblique-120"/>
      <use transform="translate(273.497513 0.546875)" xlink:href="#DejaVuSans-41"/>
     </g>
    </g>
   </g>
  </g>
 </g>
 <defs>
  <clipPath id="p71a0d99251">
   <rect height="271.8" width="558" x="90" y="43.2"/>
  </clipPath>
 </defs>
</svg>
